<svg width="39" height="40" viewBox="0 0 39 40" fill="none" xmlns="http://www.w3.org/2000/svg">
<path d="M4.875 11.6667V8.33337H8.125V6.66671C8.125 5.78265 8.46741 4.93481 9.0769 4.30968C9.6864 3.68456 10.513 3.33337 11.375 3.33337H21.125V15L25.1875 12.5L29.25 15V3.33337H30.875C32.5812 3.33337 34.125 4.91671 34.125 6.66671V33.3334C34.125 35.0834 32.5812 36.6667 30.875 36.6667H11.375C9.66875 36.6667 8.125 35.0834 8.125 33.3334V31.6667H4.875V28.3334H8.125V21.6667H4.875V18.3334H8.125V11.6667H4.875ZM11.375 18.3334H8.125V21.6667H11.375V18.3334ZM11.375 11.6667V8.33337H8.125V11.6667H11.375ZM11.375 31.6667V28.3334H8.125V31.6667H11.375Z" fill="#96A561"/>
</svg>
