<svg width="24" height="24" viewBox="0 0 24 24" fill="none" xmlns="http://www.w3.org/2000/svg">
<path d="M1.4 23.3999L18.85 15.9199C19.0304 15.8431 19.1842 15.7149 19.2923 15.5513C19.4004 15.3877 19.4581 15.196 19.4581 14.9999C19.4581 14.8038 19.4004 14.6121 19.2923 14.4485C19.1842 14.2849 19.0304 14.1567 18.85 14.0799L1.4 6.5999C1.2489 6.534 1.08377 6.50675 0.919509 6.52061C0.755246 6.53447 0.597018 6.589 0.459098 6.6793C0.321179 6.76959 0.207908 6.8928 0.129505 7.0378C0.0511009 7.18281 0.010031 7.34506 0.00999999 7.5099L0 12.1199C0 12.6199 0.37 13.0499 0.87 13.1099L15 14.9999L0.87 16.8799C0.37 16.9499 0 17.3799 0 17.8799L0.00999999 22.4899C0.00999999 23.1999 0.74 23.6899 1.4 23.3999Z" fill="#96A561"/>
</svg>
