<svg width="320" height="227" viewBox="0 0 320 227" fill="none" xmlns="http://www.w3.org/2000/svg">
<path d="M320 197.599H0V197.759H320V197.599Z" fill="#C1CB9C"/>
<path d="M287.936 207.896H266.739V208.056H287.936V207.896Z" fill="#C1CB9C"/>
<path d="M211.981 209.637H206.419V209.797H211.981V209.637Z" fill="#C1CB9C"/>
<path d="M266.099 201.957H253.818V202.117H266.099V201.957Z" fill="#C1CB9C"/>
<path d="M61.216 203.032H33.5744V203.192H61.216V203.032Z" fill="#C1CB9C"/>
<path d="M70.9696 203.032H66.9184V203.192H70.9696V203.032Z" fill="#C1CB9C"/>
<path d="M144.096 205.733H84.1408V205.893H144.096V205.733Z" fill="#C1CB9C"/>
<path d="M214.656 74.3603C229.342 74.3603 241.248 62.4546 241.248 47.7683C241.248 33.0819 229.342 21.1763 214.656 21.1763C199.97 21.1763 188.064 33.0819 188.064 47.7683C188.064 62.4546 199.97 74.3603 214.656 74.3603Z" fill="#E5E6E1"/>
<path d="M262.112 42.5267C262.112 41.3775 261.656 40.2755 260.843 39.4629C260.03 38.6504 258.928 38.1939 257.779 38.1939C257.358 38.1926 256.94 38.2551 256.538 38.3795C256.599 37.9383 256.631 37.4936 256.634 37.0483C256.636 35.6983 256.34 34.3645 255.767 33.1424C255.193 31.9202 254.357 30.8399 253.317 29.9789C252.277 29.1178 251.06 28.4972 249.753 28.1615C248.445 27.8258 247.079 27.7833 245.754 28.0371C244.849 26.5519 243.486 25.401 241.871 24.7579C240.255 24.1147 238.474 24.0141 236.796 24.4713C235.119 24.9285 233.635 25.9186 232.569 27.2925C231.503 28.6664 230.912 30.3495 230.886 32.0883H230.752C228.83 32.1448 227.006 32.9481 225.666 34.3276C224.327 35.7071 223.577 37.5542 223.577 39.4771C223.577 41.3999 224.327 43.247 225.666 44.6265C227.006 46.006 228.83 46.8093 230.752 46.8659H257.92C259.046 46.8293 260.113 46.3558 260.895 45.5458C261.678 44.7358 262.114 43.6529 262.112 42.5267Z" fill="#C1CB9C"/>
<path d="M193.67 66.3602C193.67 65.2122 193.215 64.1111 192.404 63.2987C191.592 62.4864 190.492 62.0291 189.344 62.0274C188.91 62.0234 188.479 62.086 188.064 62.213C188.261 60.9091 188.173 59.5781 187.807 58.3114C187.44 57.0446 186.804 55.8721 185.942 54.8743C185.08 53.8766 184.012 53.0772 182.812 52.5311C181.612 51.985 180.307 51.7051 178.989 51.7106C178.422 51.7119 177.856 51.7655 177.299 51.8706C176.391 50.3999 175.032 49.2623 173.424 48.6274C171.817 47.9926 170.047 47.8946 168.379 48.3481C166.711 48.8016 165.234 49.7823 164.17 51.1438C163.105 52.5053 162.509 54.1746 162.47 55.9026H162.336C160.414 55.9592 158.59 56.7625 157.25 58.142C155.911 59.5215 155.161 61.3686 155.161 63.2914C155.161 65.2143 155.911 67.0614 157.25 68.4409C158.59 69.8204 160.414 70.6237 162.336 70.6802H189.44C190.57 70.6552 191.645 70.1892 192.435 69.3819C193.226 68.5746 193.669 67.4901 193.67 66.3602Z" fill="#C1CB9C"/>
<path d="M74.24 74.5586C74.24 73.4106 73.7844 72.3095 72.9732 71.4971C72.162 70.6847 71.0616 70.2275 69.9136 70.2258C69.4805 70.2233 69.0494 70.2837 68.6336 70.405C68.7002 69.9665 68.7345 69.5237 68.736 69.0802C68.7325 67.7319 68.4326 66.4008 67.8575 65.1813C67.2824 63.9617 66.4461 62.8836 65.408 62.0232C64.3699 61.1628 63.1553 60.5411 61.8502 60.2023C60.5452 59.8635 59.1816 59.8158 57.856 60.0626C56.9528 58.5754 55.59 57.4227 53.9737 56.7785C52.3574 56.1344 50.5753 56.0339 48.8968 56.4922C47.2183 56.9505 45.7346 57.9427 44.6699 59.3189C43.6051 60.695 43.0173 62.3804 42.9952 64.1202H42.8608C40.9388 64.1768 39.1145 64.98 37.775 66.3595C36.4355 67.739 35.6863 69.5862 35.6863 71.509C35.6863 73.4318 36.4355 75.279 37.775 76.6585C39.1145 78.038 40.9388 78.8412 42.8608 78.8978H69.9904C71.1272 78.8793 72.2109 78.4133 73.0064 77.601C73.802 76.7887 74.2452 75.6955 74.24 74.5586Z" fill="#C1CB9C"/>
<path d="M259.61 95.2242C259.61 94.53 259.334 93.8642 258.843 93.3733C258.352 92.8824 257.686 92.6066 256.992 92.6066C256.736 92.6065 256.482 92.6431 256.237 92.7154C256.352 91.928 256.296 91.125 256.073 90.3611C255.85 89.5972 255.465 88.8902 254.945 88.288C254.425 87.6858 253.781 87.2026 253.058 86.871C252.334 86.5395 251.548 86.3675 250.752 86.3666C250.411 86.3659 250.07 86.3981 249.734 86.4626C249.184 85.5753 248.361 84.8897 247.389 84.508C246.417 84.1263 245.347 84.069 244.34 84.3446C243.332 84.6202 242.441 85.2139 241.798 86.0373C241.156 86.8607 240.797 87.8697 240.774 88.9138H240.64C239.452 88.9138 238.312 89.3858 237.472 90.226C236.632 91.0662 236.16 92.2057 236.16 93.3938C236.16 94.582 236.632 95.7215 237.472 96.5617C238.312 97.4018 239.452 97.8738 240.64 97.8738H257.037C257.38 97.8688 257.718 97.7963 258.033 97.6605C258.348 97.5246 258.633 97.328 258.872 97.082C259.111 96.8359 259.299 96.5452 259.426 96.2265C259.552 95.9077 259.615 95.5672 259.61 95.2242Z" fill="#C1CB9C"/>
<path d="M101.395 11.045C101.398 10.6363 101.305 10.2327 101.123 9.86687C100.941 9.50104 100.675 9.18332 100.347 8.93952C100.019 8.69572 99.6382 8.53271 99.2354 8.46375C98.8326 8.39478 98.4192 8.42179 98.0288 8.54259C98.1435 7.75513 98.0876 6.95219 97.8646 6.18827C97.6417 5.42435 97.2571 4.71731 96.7369 4.11512C96.2166 3.51294 95.573 3.0297 94.8495 2.69819C94.1261 2.36668 93.3398 2.19466 92.544 2.1938C92.2004 2.19311 91.8575 2.22526 91.52 2.2898C90.9692 1.40244 90.1464 0.71682 89.1743 0.335133C88.2021 -0.0465537 87.1327 -0.103876 86.1253 0.171715C85.1179 0.447306 84.2265 1.04105 83.5841 1.86445C82.9416 2.68786 82.5824 3.69683 82.56 4.74099H82.4832C81.295 4.74099 80.1555 5.21299 79.3154 6.05316C78.4752 6.89332 78.0032 8.03282 78.0032 9.22099C78.0032 10.4092 78.4752 11.5487 79.3154 12.3888C80.1555 13.229 81.295 13.701 82.4832 13.701H98.88C99.563 13.6743 100.209 13.3816 100.679 12.8852C101.149 12.3889 101.406 11.7285 101.395 11.045Z" fill="#C1CB9C"/>
<path d="M57.5104 108.805L74.8416 187.531L77.9904 186.053L59.7888 108.363L57.5104 108.805Z" fill="#C1CB9C"/>
<path d="M256.499 187.154C256.499 187.154 245.76 113.183 269.901 36.7026L266.118 33.7842C266.118 33.7842 237.856 91.6402 241.971 189.253L256.499 187.154Z" fill="#C1CB9C"/>
<path d="M276.48 16.5938C285.325 10.7954 298.413 20.0178 300.211 34.4306C298.911 33.681 297.552 33.0389 296.147 32.5106C295.462 28.8818 294.803 25.6754 294.803 25.6754L295.277 32.1842C294.496 31.9026 293.645 31.6274 292.717 31.3778L292.077 27.877L291.789 31.1474C290.536 30.8549 289.267 30.6411 287.987 30.5074L286.336 20.2674L285.504 30.3026C284.194 30.2662 282.883 30.324 281.581 30.4754L280.57 23.525V30.6162C279.449 30.7973 278.342 31.0517 277.254 31.3778L276.045 21.0098C276.045 21.0098 276.077 26.8402 276.013 31.7874C272.883 32.9216 269.989 34.6225 267.475 36.805L267.379 35.525C267.379 35.525 268.397 21.8802 276.48 16.5938Z" fill="#96A561"/>
<path d="M264.25 11.96C257.21 4.05604 242.182 9.53445 236.685 22.9744C238.134 22.5854 239.613 22.3178 241.107 22.1744C242.714 18.8528 244.192 15.928 244.192 15.928L242.035 22.0848C242.861 22.0208 243.75 21.9824 244.704 21.9824L246.208 18.7824L245.632 22.0144C246.918 22.0494 248.2 22.1649 249.472 22.36L253.741 12.9264L251.936 22.8464C253.212 23.1495 254.463 23.5475 255.68 24.0368L258.477 17.592L256.64 24.4144C257.677 24.8781 258.68 25.4149 259.642 26.0208L263.526 16.3248C263.526 16.3248 261.965 21.944 260.736 26.7312C263.46 28.6474 265.807 31.0491 267.661 33.816L268.09 32.6064C268.09 32.6064 270.656 19.1792 264.25 11.96Z" fill="#96A561"/>
<path d="M257.485 30.7057C264.525 23.8385 269.811 29.8161 269.811 29.8161C267.168 30.5009 264.806 32.1969 262.771 34.3537L261.818 33.1121L261.971 35.2305C261.485 35.7937 261.011 36.3825 260.557 36.9905L258.944 33.3233L259.635 38.2897C258.995 39.2369 258.355 40.2097 257.824 41.1825L257.114 37.5473L257.171 42.3665C256.582 43.4545 256.058 44.5233 255.59 45.5281L254.822 38.8529L254.72 47.4865C253.594 50.1489 253.005 52.0177 253.005 52.0177C253.005 52.0177 250.445 37.5793 257.485 30.7057Z" fill="#96A561"/>
<path d="M276.48 46.9426L275.027 47.781C274.816 46.661 274.566 45.4898 274.291 44.2994L275.277 42.4882L274.035 43.2562C273.939 42.8594 273.83 42.469 273.728 42.0722L275.008 38.5266L273.088 39.941C272.064 36.741 270.758 33.9314 269.126 32.5874C269.126 32.5874 285.267 37.7458 276.166 55.1474C276.166 55.1474 275.872 52.3954 275.226 48.7794L276.48 46.9426Z" fill="#96A561"/>
<path d="M260.608 32.7024L258.048 27.8384L259.11 32.9072C258.854 32.9456 258.592 32.9968 258.33 33.048L254.982 28.8816L255.808 33.6752C254.664 34.0216 253.542 34.4362 252.448 34.9168C251.255 35.4514 250.091 36.0474 248.96 36.7024L247.328 32.4464L248.09 37.208C246.982 37.848 245.901 38.5712 244.89 39.3008L244.083 35.5504L244.16 39.8192C242.88 40.7408 241.69 41.6752 240.589 42.5904L240.691 35.7936L239.699 43.3392C238.573 44.2992 237.555 45.2208 236.691 46.04L236.57 41.3232L235.373 47.3136C234.131 48.5488 233.421 49.336 233.421 49.336C234.061 32.8304 240.461 26.296 251.046 24.504C261.632 22.712 269.261 33.7264 269.261 33.7264C269.261 33.7264 265.971 32.1648 260.608 32.7024Z" fill="#96A561"/>
<path d="M291.482 52.8754L290.515 57.8226C290.048 56.6002 289.414 55.0322 288.595 53.285L289.466 46.085L287.878 51.7618C286.638 49.1804 285.2 46.6983 283.578 44.3378L285.088 39.3458L282.643 43.0514C282.15 42.4114 281.645 41.7714 281.12 41.1826L281.978 38.0402L280.653 40.6706C280.294 40.2738 279.923 39.8962 279.546 39.5314L280.589 35.3394L278.931 38.9682C277.9 38.0247 276.764 37.2023 275.546 36.517L277.229 31.397L274.592 36.0434C272.934 35.2657 271.117 34.8865 269.286 34.9362C269.286 34.9362 272.486 29.8162 278.368 28.0562C284.25 26.2962 296.928 36.9458 291.424 60.4402C291.424 60.4402 291.258 59.909 290.925 58.9938L291.482 52.8754Z" fill="#96A561"/>
<path d="M281.779 7.22424L282.784 10.2066C282.413 10.2276 282.045 10.2812 281.683 10.3666L280.474 6.48183L281.28 10.4626C280.513 10.692 279.78 11.0258 279.104 11.4546L277.44 6.21304L278.4 11.9282C278.131 12.1266 277.862 12.3442 277.587 12.5682L275.706 7.64663L277.12 13.0226C275.729 14.4148 274.542 15.9962 273.594 17.7202L273.101 10.4626L272.269 20.3122C270.889 23.3922 269.776 26.5847 268.941 29.8546C268.941 29.8546 267.917 3.61463 274.234 0.670633C280.55 -2.27337 284.307 10.3282 284.307 10.3282C284.026 10.2455 283.736 10.1982 283.443 10.1874L281.779 7.22424Z" fill="#96A561"/>
<path d="M272.755 36.4146L272.192 41.3874L270.272 36.5938L267.712 40.3442L266.701 36.8498L263.744 39.333C263.744 39.333 264.109 32.9906 265.997 30.0914C267.885 27.1922 273.555 29.2274 272.755 36.4146Z" fill="#96A561"/>
<path d="M193.92 116.376V81.7009C193.92 81.7009 186.88 89.1825 182.227 88.1585C177.574 87.1345 171.52 90.6737 171.52 90.6737C171.52 90.6737 177.619 89.7841 179.885 92.2609C182.15 94.7377 192.262 95.0001 192.262 95.0001V117.643L193.92 116.376Z" fill="#C1CB9C"/>
<path d="M224.96 105.746H223.36V107.928H218.086V105.746H212.902V107.928H207.629V105.746H202.451V107.928H197.171V105.746H191.994V107.928H186.72V105.746H181.536V107.928H176.262V105.746H171.078V107.928H165.805V105.746H164.032L158.893 146.834L230.272 146.539L224.96 105.746Z" fill="#96A561"/>
<path d="M236.314 135.57H234.118V138.565H226.874V135.57H219.757V138.565H212.506V135.57H205.389V138.565H198.144V135.57H191.027V138.565H183.776V135.57H176.659V138.565H169.408V135.57H162.291V138.565H155.046V135.57H152.608L145.542 192.024L243.622 191.615L236.314 135.57Z" fill="#C1CB9C"/>
<path d="M272.544 185.375C271.027 183.666 269.6 181.919 268.013 180.255C267.931 180.172 267.856 180.082 267.789 179.986C267.266 179.648 266.721 179.346 266.157 179.083C266.054 179.051 265.722 178.917 265.382 178.789C264.742 178.559 264.102 178.309 263.462 178.053C259.488 176.453 255.917 174.597 252.915 171.442C251.27 169.714 249.958 167.698 248.256 166.021C248.211 166.079 247.878 165.899 247.718 165.771L246.438 165.605C245.754 165.605 245.062 165.605 244.378 165.65C243.398 165.695 242.419 165.771 241.44 165.861C237.6 171.442 232.8 179.064 230.675 180.069C227.379 181.631 197.005 189.669 194.765 189.176C192.525 188.683 180.8 189.65 177.856 189.541C174.912 189.432 169.581 188.127 161.856 184.575C154.131 181.023 149.92 181.003 140.621 178.04C131.322 175.077 125.088 173.951 119.648 178.507C114.208 183.064 99.264 173.445 94.6048 172.075C89.9456 170.706 81.0368 162.815 74.9568 166.495C68.8768 170.175 63.8208 171.928 56.224 178.507C48.6272 185.087 33.5552 197.803 33.5552 197.803H290.195L287.245 192.651C284.433 192.48 281.684 191.748 279.159 190.498C276.634 189.249 274.385 187.507 272.544 185.375Z" fill="#E5E6E1"/>
<path d="M27.6352 122.463C27.6352 122.463 35.104 109.023 55.3408 97.4257C55.3408 97.4257 71.8144 96.0241 90.4128 104.133C90.4128 104.133 94.1824 110.392 89.8944 112.863C85.6064 115.333 82.0544 110.367 82.0544 110.367C82.0544 110.367 81.2608 117.931 75.6544 118.149C70.048 118.367 68.4224 112.863 68.4224 112.863C68.4224 112.863 67.872 119.807 61.1968 121.56C55.424 123.103 51.84 118.149 51.84 118.149C51.84 118.149 50.688 123.858 45.4976 125.503C41.3248 126.821 38.4576 123.231 38.4576 123.231C38.4576 123.231 37.2608 129.426 32.832 129.426C29.024 129.426 27.6352 122.463 27.6352 122.463Z" fill="#96A561"/>
<path d="M160 226.501C228.533 226.501 284.09 223.257 284.09 219.256C284.09 215.255 228.533 212.011 160 212.011C91.4672 212.011 35.9104 215.255 35.9104 219.256C35.9104 223.257 91.4672 226.501 160 226.501Z" fill="#E5E6E1"/>
<path d="M245.76 187.685C245.76 187.685 248.544 183.608 251.078 182.469C253.613 181.33 254.022 176.997 255.398 176.76C256.774 176.523 258.291 180.517 260.698 181.682C263.104 182.847 266.746 187.659 266.746 187.659L245.76 187.685Z" fill="#C1CB9C"/>
<path opacity="0.8" d="M245.76 187.685C245.76 187.685 248.544 183.608 251.078 182.469C253.613 181.33 254.022 176.997 255.398 176.76C256.774 176.523 258.291 180.517 260.698 181.682C263.104 182.847 266.746 187.659 266.746 187.659L245.76 187.685Z" fill="white"/>
<path d="M265.997 217.035H245.747L243.187 187.659H268.557L265.997 217.035Z" fill="#C1CB9C"/>
<path d="M269.779 186.136H241.958V189.227H269.779V186.136Z" fill="#C1CB9C"/>
<path opacity="0.2" d="M269.779 186.136H241.958V189.227H269.779V186.136Z" fill="white"/>
<path d="M254.675 188.312C256.518 191.205 264.41 203.141 269.299 204.011L269.901 202.565C269.901 202.565 265.523 203.09 255.821 187.582C255.729 187.432 255.583 187.322 255.413 187.276C255.243 187.229 255.061 187.25 254.906 187.333C254.823 187.379 254.752 187.442 254.695 187.518C254.638 187.594 254.598 187.68 254.576 187.772C254.555 187.864 254.552 187.959 254.569 188.052C254.586 188.145 254.622 188.234 254.675 188.312Z" fill="#263238"/>
<path d="M225.862 179.045C226.07 178.979 226.289 178.956 226.506 178.976C226.724 178.996 226.934 179.06 227.127 179.163C227.319 179.267 227.488 179.407 227.625 179.577C227.762 179.747 227.863 179.942 227.923 180.152L231.379 192.242L235.859 190.443C235.859 190.443 238.566 200.523 233.453 202.117C228.48 203.672 224.64 194.366 224.64 194.366L229.21 193.086L224.845 181.144C224.771 180.94 224.739 180.722 224.751 180.505C224.763 180.288 224.817 180.076 224.912 179.88C225.007 179.685 225.14 179.51 225.303 179.367C225.466 179.223 225.656 179.114 225.862 179.045Z" fill="#C1CB9C"/>
<path opacity="0.4" d="M233.472 202.117C228.48 203.672 224.64 194.366 224.64 194.366L229.21 193.086C229.21 193.086 229.997 194.43 230.88 194.098C231.763 193.765 231.405 192.222 231.405 192.222L235.885 190.424C235.885 190.424 238.586 200.542 233.472 202.117Z" fill="white"/>
<path d="M271.789 219.518C269.274 218.27 266.701 217.093 265.875 217.035C264.109 216.92 263.091 216.133 261.83 214.629C260.57 213.125 260.058 211.384 257.779 208.965C255.501 206.546 258.029 205.573 253.216 204.952C248.403 204.331 250.266 204.722 247.309 202.59C244.352 200.459 244.954 200.466 241.491 198.942C238.029 197.419 240.051 196.843 236 196.504C233.203 196.267 228.781 197.739 226.483 199.378C225.466 200.101 224.947 201.298 223.923 201.938C222.79 202.661 221.03 201.298 221.216 203.736C221.339 204.357 221.367 204.994 221.299 205.624C220.973 206.994 215.334 206.987 213.901 207.416C213.559 207.477 213.253 207.664 213.043 207.941C212.717 208.523 213.21 209.554 212.576 209.765C212.378 209.835 212.154 209.765 211.936 209.797C211.174 209.944 211.373 211.314 210.656 211.627C209.939 211.941 209.114 211.301 208.32 211.627C207.712 211.858 207.507 212.677 206.976 213.003C206.048 213.566 205.088 213.982 204.173 214.584C202.586 215.621 201.21 216.894 199.507 217.784L194.95 219.026L193.587 219.506L271.789 219.518Z" fill="#C1CB9C"/>
<path opacity="0.8" d="M271.789 219.518C269.274 218.27 266.701 217.093 265.875 217.035C264.109 216.92 263.091 216.133 261.83 214.629C260.57 213.125 260.058 211.384 257.779 208.965C255.501 206.546 258.029 205.573 253.216 204.952C248.403 204.331 250.266 204.722 247.309 202.59C244.352 200.459 244.954 200.466 241.491 198.942C238.029 197.419 240.051 196.843 236 196.504C233.203 196.267 228.781 197.739 226.483 199.378C225.466 200.101 224.947 201.298 223.923 201.938C222.79 202.661 221.03 201.298 221.216 203.736C221.339 204.357 221.367 204.994 221.299 205.624C220.973 206.994 215.334 206.987 213.901 207.416C213.559 207.477 213.253 207.664 213.043 207.941C212.717 208.523 213.21 209.554 212.576 209.765C212.378 209.835 212.154 209.765 211.936 209.797C211.174 209.944 211.373 211.314 210.656 211.627C209.939 211.941 209.114 211.301 208.32 211.627C207.712 211.858 207.507 212.677 206.976 213.003C206.048 213.566 205.088 213.982 204.173 214.584C202.586 215.621 201.21 216.894 199.507 217.784L194.95 219.026L193.587 219.506L271.789 219.518Z" fill="white"/>
<path d="M218.08 207.87C218.083 207.917 218.083 207.964 218.08 208.011C218.061 210.179 217.431 212.297 216.262 214.123C216.166 214.27 216.07 214.418 215.962 214.565C215.29 215.519 214.479 216.367 213.555 217.08C213.35 217.247 213.137 217.403 212.915 217.547C212.865 217.586 212.811 217.62 212.755 217.65L212.544 217.784C212.435 217.858 212.321 217.927 212.205 217.989C212.026 218.091 211.84 218.194 211.654 218.283C209.426 219.405 206.896 219.779 204.438 219.35C201.98 218.922 199.726 217.713 198.01 215.902C197.227 215.094 196.569 214.172 196.058 213.17C195.214 211.528 194.775 209.709 194.778 207.864V207.826C194.778 207.499 194.778 207.186 194.822 206.853C194.947 205.352 195.367 203.89 196.058 202.552C196.228 202.216 196.416 201.889 196.621 201.573C197.291 200.533 198.121 199.604 199.078 198.821C199.382 198.572 199.701 198.341 200.032 198.13C200.148 198.047 200.267 197.97 200.39 197.899C201.306 197.336 202.298 196.905 203.334 196.619L203.603 196.549C204.529 196.319 205.479 196.203 206.432 196.203C206.731 196.203 207.025 196.216 207.315 196.242H207.539C208.833 196.364 210.097 196.706 211.277 197.253L211.424 197.323C213.176 198.152 214.693 199.406 215.836 200.971C216.98 202.536 217.714 204.362 217.971 206.283C218.046 206.809 218.083 207.339 218.08 207.87Z" fill="#C1CB9C"/>
<path opacity="0.6" d="M218.08 207.87C218.082 210.036 217.479 212.158 216.339 213.999C215.199 215.84 213.568 217.326 211.629 218.29C211.363 218.075 211.145 217.807 210.989 217.502C213.139 211.23 210.989 207.87 210.989 207.87V207.806L211.142 206.802V206.616C211.475 204.754 212.314 201.266 214.131 199.154C215.37 200.243 216.363 201.584 217.044 203.087C217.725 204.59 218.078 206.22 218.08 207.87Z" fill="white"/>
<path opacity="0.6" d="M197.498 205.854C197.498 205.854 195.456 207.896 196.058 213.176C194.841 210.8 194.477 208.079 195.027 205.467C195.577 202.855 197.007 200.511 199.078 198.827C197.949 200.992 197.404 203.414 197.498 205.854Z" fill="white"/>
<path opacity="0.2" d="M214.163 199.154C211.603 202.123 210.963 207.871 210.963 207.871C203.923 209.592 197.478 205.854 197.478 205.854C197.385 203.41 197.93 200.984 199.059 198.814C201.203 197.07 203.898 196.145 206.662 196.205C209.425 196.265 212.077 197.306 214.144 199.141L214.163 199.154Z" fill="white"/>
<path opacity="0.2" d="M211.622 218.29C209.397 219.403 206.873 219.772 204.422 219.342C201.971 218.912 199.723 217.707 198.01 215.902C200.192 217.182 204.653 219.019 210.982 217.496C211.138 217.803 211.356 218.073 211.622 218.29Z" fill="white"/>
<g opacity="0.2">
<path d="M211.43 197.342C211.126 197.77 210.846 198.214 210.592 198.674C210.118 199.556 209.71 200.471 209.37 201.413C209.011 202.354 208.73 203.333 208.474 204.286C208.218 205.24 208 206.245 207.834 207.237C207.901 206.227 208.042 205.224 208.256 204.235C208.473 203.242 208.75 202.263 209.088 201.304C209.437 200.352 209.865 199.432 210.368 198.552C210.647 198.109 210.95 197.681 211.277 197.272L211.43 197.342Z" fill="black"/>
<path d="M207.539 196.267C207.379 196.555 207.232 196.85 207.091 197.144C206.621 198.137 206.234 199.166 205.933 200.222C205.594 201.272 205.338 202.347 205.094 203.422C204.851 204.498 204.646 205.586 204.454 206.674C204.52 205.566 204.652 204.463 204.851 203.371C205.043 202.277 205.299 201.196 205.619 200.133C205.938 199.062 206.356 198.023 206.867 197.029C207.008 196.766 207.155 196.504 207.309 196.254L207.539 196.267Z" fill="black"/>
<path d="M203.603 196.562L203.405 197.08C203.052 198.03 202.764 199.003 202.541 199.992C202.291 200.978 202.099 201.976 201.901 202.981C201.702 203.986 201.562 204.99 201.414 206.002C201.437 204.978 201.52 203.956 201.664 202.942C201.804 201.92 201.996 200.905 202.24 199.902C202.474 198.899 202.789 197.917 203.181 196.965C203.232 196.85 203.283 196.728 203.341 196.613L203.603 196.562Z" fill="black"/>
<path d="M200.39 197.906C200.173 198.623 199.968 199.339 199.821 200.069C199.674 200.799 199.501 201.707 199.373 202.533C199.245 203.359 199.155 204.191 199.078 205.029C199.035 204.188 199.052 203.346 199.13 202.507C199.211 201.667 199.337 200.832 199.507 200.005C199.65 199.373 199.825 198.75 200.032 198.136C200.148 198.053 200.267 197.977 200.39 197.906Z" fill="black"/>
<path d="M214.259 211.755C214.293 212.961 214.135 214.164 213.792 215.32C213.621 215.896 213.407 216.459 213.152 217.003C213.069 217.189 212.973 217.374 212.877 217.554C212.826 217.592 212.773 217.626 212.717 217.656C213.067 216.884 213.344 216.08 213.542 215.256C213.842 214.117 213.972 212.939 213.926 211.762C213.908 210.584 213.727 209.415 213.389 208.286C213.057 207.146 212.584 206.052 211.981 205.029C212.696 206 213.249 207.081 213.619 208.229C214.009 209.365 214.225 210.554 214.259 211.755Z" fill="black"/>
<path d="M216.557 211.422L216.525 212.389L216.39 213.349C216.362 213.609 216.317 213.868 216.256 214.123C216.16 214.27 216.064 214.418 215.955 214.565C216.051 214.154 216.115 213.737 216.147 213.317L216.243 212.37V211.422C216.266 211.105 216.266 210.786 216.243 210.469C216.211 210.155 216.211 209.829 216.154 209.528C216.008 208.269 215.691 207.035 215.213 205.861C214.751 204.674 214.117 203.561 213.331 202.558C214.217 203.492 214.93 204.576 215.437 205.758C215.96 206.943 216.309 208.198 216.474 209.483C216.525 209.803 216.518 210.123 216.544 210.45C216.571 210.773 216.575 211.098 216.557 211.422Z" fill="black"/>
<path d="M218.08 207.87C218.083 207.917 218.083 207.964 218.08 208.011L218.042 207.794C217.769 206.467 217.34 205.178 216.762 203.954C216.195 202.714 215.449 201.565 214.547 200.542C215.543 201.494 216.366 202.612 216.979 203.845C217.386 204.645 217.724 205.477 217.99 206.334C218.056 206.844 218.086 207.357 218.08 207.87Z" fill="black"/>
<path d="M196.928 204.011C196.414 204.595 195.973 205.24 195.616 205.931C195.283 206.547 195.003 207.189 194.778 207.851C194.778 207.525 194.778 207.211 194.822 206.878C194.994 206.508 195.188 206.149 195.405 205.803C195.804 205.121 196.319 204.515 196.928 204.011Z" fill="black"/>
<path d="M197.478 200.914C196.992 201.464 196.518 202.008 196.058 202.558C196.228 202.222 196.416 201.895 196.621 201.579C196.894 201.341 197.18 201.119 197.478 200.914Z" fill="black"/>
<path d="M197.478 208.325C198.541 208.734 199.616 209.093 200.678 209.413C201.764 209.735 202.867 209.997 203.981 210.2C206.199 210.678 208.496 210.65 210.701 210.117C209.627 210.519 208.493 210.735 207.347 210.757C206.2 210.779 205.053 210.689 203.923 210.488C202.799 210.275 201.691 209.985 200.608 209.618C199.534 209.266 198.487 208.834 197.478 208.325Z" fill="black"/>
<path d="M197.478 211.109C198.548 211.533 199.642 211.892 200.755 212.184C201.865 212.477 202.994 212.691 204.134 212.824C205.271 212.98 206.419 213.033 207.565 212.984L208.422 212.946L209.28 212.843C209.856 212.805 210.406 212.638 210.982 212.555C209.879 212.919 208.736 213.147 207.578 213.234C206.417 213.316 205.251 213.286 204.096 213.144C202.944 212.992 201.805 212.748 200.691 212.414C199.581 212.084 198.505 211.646 197.478 211.109Z" fill="black"/>
<path d="M197.76 213.515C198.767 213.984 199.809 214.374 200.877 214.68C201.941 214.985 203.028 215.199 204.128 215.32C204.678 215.41 205.229 215.422 205.779 215.461C206.33 215.499 206.886 215.461 207.443 215.429C208.551 215.366 209.652 215.208 210.733 214.955C209.676 215.327 208.578 215.57 207.462 215.678C206.34 215.79 205.209 215.777 204.09 215.64C202.973 215.502 201.873 215.253 200.806 214.898C199.741 214.555 198.719 214.091 197.76 213.515Z" fill="black"/>
<path d="M198.24 215.326C199.19 215.765 200.172 216.131 201.178 216.421C202.178 216.72 203.201 216.934 204.237 217.061C205.27 217.214 206.318 217.255 207.36 217.182L208.141 217.125L208.909 216.997C209.434 216.946 209.926 216.766 210.445 216.664C209.463 217.06 208.432 217.319 207.379 217.432C206.316 217.559 205.242 217.559 204.179 217.432C203.128 217.298 202.092 217.06 201.088 216.722C200.088 216.368 199.132 215.9 198.24 215.326Z" fill="black"/>
</g>
<path d="M72.8256 189.56C72.8256 189.56 75.104 186.136 79.1552 185.886C83.2064 185.637 86.624 190.802 86.624 190.802H85.344C85.344 190.802 82.0736 187.275 79.7312 187.275C77.3888 187.275 75.1104 190.187 75.1104 190.187L72.8256 189.56Z" fill="#263238"/>
<path d="M38.4512 216.581C39.8528 214.245 55.552 215.762 59.0976 214.366L61.0176 217.662C61.0176 217.662 58.3104 219.16 53.8176 218.629C49.3248 218.098 42.5344 217.957 40.7616 219.518L38.4512 216.581Z" fill="#263238"/>
<path opacity="0.3" d="M38.4512 216.581C39.8528 214.245 55.552 215.762 59.0976 214.366L61.0176 217.662C61.0176 217.662 58.3104 219.16 53.8176 218.629C49.3248 218.098 42.5344 217.957 40.7616 219.518L38.4512 216.581Z" fill="black"/>
<path d="M104.576 209.458C104.448 210.014 104.307 210.558 104.147 211.09C102.867 215.448 100.896 218.974 99.4624 219.518H58.7648C58.2052 219.518 57.6529 219.39 57.1504 219.144C56.6479 218.898 56.2084 218.54 55.8656 218.098L55.8336 218.053C55.6833 217.855 55.5566 217.64 55.456 217.413C52.6464 211.544 49.8112 199.806 53.7984 194.456C54.2155 193.898 54.6966 193.391 55.232 192.946L55.3472 192.856C56.1916 192.167 57.1261 191.596 58.1248 191.16H58.1568C60.96 189.88 64.4032 189.31 67.7568 189.061C68.736 188.984 69.6768 188.939 70.6624 188.92C73.1584 188.85 75.488 188.92 77.344 188.965C83.8848 189.131 89.0304 191.077 92.5376 190.738C93.8256 190.603 95.1274 190.707 96.3776 191.045C96.7376 191.146 97.0922 191.266 97.44 191.403C99.036 192.078 100.521 192.991 101.843 194.11C105.85 197.291 105.907 203.813 104.576 209.458Z" fill="#263238"/>
<path opacity="0.1" d="M104.576 209.458C104.448 210.014 104.307 210.558 104.147 211.09C102.867 215.448 100.896 218.974 99.4624 219.518H58.7648C58.2052 219.518 57.6529 219.39 57.1504 219.144C56.6479 218.898 56.2084 218.54 55.8656 218.098L55.8336 218.053C55.6833 217.855 55.5566 217.64 55.456 217.413C52.6464 211.544 49.8112 199.806 53.7984 194.456C54.2155 193.898 54.6966 193.391 55.232 192.946L55.3472 192.856C56.1916 192.167 57.1261 191.596 58.1248 191.16H58.1568C60.96 189.88 64.4032 189.31 67.7568 189.061C68.736 188.984 69.6768 188.939 70.6624 188.92C73.1584 188.85 75.488 188.92 77.344 188.965C83.8848 189.131 89.0304 191.077 92.5376 190.738C93.8256 190.603 95.1274 190.707 96.3776 191.045C96.7376 191.146 97.0922 191.266 97.44 191.403C99.036 192.078 100.521 192.991 101.843 194.11C105.85 197.291 105.907 203.813 104.576 209.458Z" fill="white"/>
<path opacity="0.2" d="M98.3424 209.054C95.4304 209.054 89.6064 210.443 80.9984 208.549C76.985 207.595 72.8077 207.565 68.7808 208.459C68.6848 207.179 68.5824 205.752 68.4672 204.203C67.7056 193.803 61.7728 189.438 58.1568 191.166H58.1248C57.1437 191.636 56.213 192.204 55.3472 192.862L55.232 192.952C54.6966 193.398 54.2155 193.904 53.7984 194.462C49.8112 199.813 52.6464 211.55 55.456 217.419C55.5566 217.646 55.6833 217.861 55.8336 218.059L55.8656 218.104C56.2115 218.496 56.637 218.81 57.1137 219.025C57.5904 219.241 58.1074 219.352 58.6304 219.352H65.92C68.896 219.352 69.248 216.626 68.9152 210.77C69.4208 210.482 70.0416 210.13 70.7328 209.656C72.544 208.478 79.5904 209.061 82.6304 210.2C85.6704 211.339 93.6448 211.845 97.504 211.218C99.6997 210.892 101.928 210.851 104.134 211.096C104.294 210.565 104.435 210.021 104.563 209.464C103.245 209.317 100.48 209.054 98.3424 209.054Z" fill="black"/>
<path opacity="0.2" d="M71.8848 194.366C73.6576 200.824 74.8736 203.102 75.3408 203.736C75.808 204.37 88.6976 205.899 91.1168 205.893C93.909 205.868 96.6934 205.594 99.4368 205.074C101.082 204.658 101.613 196.376 97.4656 191.41C97.1179 191.272 96.7633 191.152 96.4032 191.051C98.6624 196.12 98.7136 202.328 98.4448 203.211C98.0608 204.44 94.2656 204.261 92.4928 204.222C90.72 204.184 79.6928 203.499 78.5664 203.051C77.4788 202.6 76.553 201.83 75.9104 200.843C75.0208 199.704 74.8992 195.781 73.2928 192.395C72.6109 191.109 71.7223 189.944 70.6624 188.946C69.7088 188.946 68.7424 189.01 67.7568 189.086C68.7689 189.638 69.6573 190.391 70.3673 191.299C71.0772 192.207 71.5937 193.251 71.8848 194.366Z" fill="black"/>
<path d="M59.0976 200.312L55.552 201.182C55.552 201.182 53.0368 208.402 54.5408 211.422C56.0448 214.443 44.3008 218.648 38.4512 216.542L40.7424 219.48C40.7424 219.48 54.6688 218.603 57.3248 213.304C59.9808 208.005 56.1856 207.186 55.936 205.694C55.6864 204.203 59.0976 200.312 59.0976 200.312Z" fill="#263238"/>
<path opacity="0.1" d="M59.0976 200.312L55.552 201.182C55.552 201.182 53.0368 208.402 54.5408 211.422C56.0448 214.443 44.3008 218.648 38.4512 216.542L40.7424 219.48C40.7424 219.48 54.6688 218.603 57.3248 213.304C59.9808 208.005 56.1856 207.186 55.936 205.694C55.6864 204.203 59.0976 200.312 59.0976 200.312Z" fill="white"/>
<path d="M90.4128 51.4226C90.4128 51.4226 76.7168 43.7426 73.8816 41.7714C71.0464 39.8002 55.8784 24.9074 55.0336 24.4914C55.0336 24.4914 55.5968 22.789 54.3232 21.797C53.0496 20.805 48.0832 17.5474 47.3792 17.5474C46.6752 17.5474 44.8192 24.4914 45.1072 26.1938C45.3952 27.8962 52.3392 28.3186 52.3392 28.3186C52.3392 28.3186 66.7968 45.1506 69.0624 47.5186C71.328 49.8866 86.7776 59.941 86.7776 59.941L90.4128 51.4226Z" fill="#FFD4CD"/>
<path d="M96.032 52.8368C96.032 52.8368 99.0336 58.8976 91.744 68.5232L75.6736 56.7088L82.0736 45.0928L96.032 52.8368Z" fill="#C1CB9C"/>
<path opacity="0.6" d="M91.744 68.5232L84.1536 62.9424L83.1616 62.2128L78.88 59.1024L75.68 56.7408L78.0416 52.472L79.36 50.0144L82.08 45.0928L84.704 46.552L86.9696 47.832L96.0192 52.8624C96.3164 53.5649 96.5 54.3102 96.5632 55.0704C96.864 57.624 96.4288 62.3344 91.744 68.5232Z" fill="white"/>
<path opacity="0.2" d="M91.744 68.5233L84.1536 62.9425C86.7584 57.5537 93.4976 55.6529 96.576 55.0449C96.864 57.6241 96.4288 62.3345 91.744 68.5233Z" fill="black"/>
<g opacity="0.2">
<path d="M86.9824 47.8064L84.7168 49.1248V46.552L86.9824 47.8064Z" fill="white"/>
<path d="M82.0544 50.808L79.2128 54.7952L78.0352 52.44L79.3728 50.0144L82.0544 50.808Z" fill="white"/>
<path d="M84.1536 56.8049L83.1616 62.2129L78.88 59.0705L84.1536 56.8049Z" fill="white"/>
<path d="M86.1184 53.72L87.6992 57.7712L90.9824 53.304L86.1184 53.72Z" fill="white"/>
</g>
<path d="M125.901 49.9697C125.901 49.9697 139.597 42.2897 142.432 40.3185C145.267 38.3473 160.435 23.4545 161.286 23.0385C161.286 23.0385 160.717 21.3361 161.99 20.3441C163.264 19.3521 168.23 16.0945 168.934 16.0945C169.638 16.0945 171.494 23.0385 171.206 24.7409C170.918 26.4433 163.974 26.8657 163.974 26.8657C163.974 26.8657 149.517 43.7041 147.251 46.0657C144.986 48.4273 129.536 58.4625 129.536 58.4625L125.901 49.9697Z" fill="#FFD4CD"/>
<path d="M109.536 131.071C109.536 131.071 109.242 135.903 108.8 142.367C108.506 146.386 108.16 151.026 107.744 155.512C107.206 161.541 106.598 167.288 105.99 170.872C105.434 174.155 98.0416 214.93 98.0416 214.93H93.088C94.6496 176.907 97.0688 162.162 97.1584 159.947C97.1584 159.224 97.216 158.219 97.248 157.023C97.344 152.683 97.4272 145.829 97.4784 140.843C97.5168 137.247 97.536 134.629 97.536 134.629L109.536 131.071Z" fill="#FFD4CD"/>
<path d="M128.64 161.835C128.467 165.157 126.49 214.751 126.49 214.751H121.043C118.259 175.25 119.315 161.535 118.816 158.795C117.965 154.136 117.165 148.011 116.614 143.435C116.173 139.781 115.898 137.151 115.898 137.151L127.002 132.351C127.002 132.351 127.674 138.111 128.179 145.01C128.429 148.466 128.646 152.223 128.71 155.717C128.762 157.906 128.749 159.992 128.64 161.835Z" fill="#FFD4CD"/>
<path opacity="0.2" d="M97.4528 140.831L108.8 142.367C108.506 146.386 108.16 151.026 107.744 155.512L97.2224 157.023C97.3184 152.671 97.4016 145.816 97.4528 140.831Z" fill="black"/>
<path opacity="0.2" d="M128.717 155.743L118.822 158.789C117.971 154.13 117.171 148.005 116.621 143.429L128.186 145.003C128.435 148.466 128.64 152.223 128.717 155.743Z" fill="black"/>
<path d="M99.2 213.394H92.6528C92.5456 213.395 92.4419 213.433 92.3584 213.5C92.2749 213.567 92.2163 213.661 92.192 213.765L91.136 218.552C91.0923 218.758 91.1317 218.972 91.2457 219.148C91.3597 219.325 91.5388 219.448 91.744 219.493C91.8036 219.499 91.8637 219.499 91.9232 219.493C94.0352 219.461 95.5776 219.327 98.2272 219.327C99.8656 219.327 104.8 219.499 107.053 219.499C109.306 219.499 109.613 217.272 108.685 217.061C104.538 216.159 101.414 214.911 100.09 213.72C99.8458 213.502 99.5274 213.385 99.2 213.394Z" fill="#C1CB9C"/>
<path d="M126.899 213.227H120.365C120.258 213.226 120.154 213.262 120.07 213.328C119.986 213.395 119.927 213.488 119.904 213.592L118.842 218.386C118.821 218.49 118.822 218.596 118.843 218.7C118.864 218.804 118.906 218.902 118.965 218.99C119.025 219.077 119.101 219.152 119.19 219.21C119.278 219.268 119.378 219.307 119.482 219.327H119.654C121.773 219.295 123.309 219.167 125.965 219.167C127.597 219.167 132.531 219.333 134.79 219.333C137.05 219.333 137.35 217.106 136.416 216.901C132.269 215.999 129.152 214.744 127.827 213.554C127.702 213.441 127.555 213.354 127.396 213.298C127.237 213.242 127.068 213.218 126.899 213.227Z" fill="#C1CB9C"/>
<path d="M109.984 152.715C110.035 152.28 110.086 151.826 110.138 151.314C110.778 144.76 111.475 136.895 112.058 129.317C114.266 135.256 115.219 143.608 116.371 152.715H129.811C128.698 129.144 125.779 109.97 124.23 101.791H95.7248C95.6864 104.722 95.36 133.151 94.624 152.715H109.984Z" fill="#263238"/>
<path opacity="0.2" d="M109.984 152.715C110.035 152.28 110.086 151.826 110.138 151.314C110.778 144.76 111.475 136.895 112.058 129.317C114.266 135.256 115.219 143.608 116.371 152.715H129.811C128.698 129.144 125.779 109.97 124.23 101.791H95.7248C95.6864 104.722 95.36 133.151 94.624 152.715H109.984Z" fill="white"/>
<path d="M113.92 43.4161C113.858 43.6741 113.781 43.9284 113.69 44.1777C113.18 45.6009 112.252 46.8367 111.027 47.7233C110.719 47.9492 110.394 48.1504 110.054 48.3249C108.757 49.0191 107.267 49.2698 105.814 49.0387C104.36 48.8076 103.022 48.1074 102.003 47.0449C99.3088 44.3249 99.3792 41.1825 99.072 35.8641C98.9908 34.7213 99.1771 33.5752 99.616 32.5169C99.9831 31.6334 100.521 30.831 101.198 30.1553C101.875 29.4797 102.679 28.9441 103.564 28.5792C104.448 28.2143 105.395 28.0272 106.352 28.0286C107.309 28.03 108.256 28.2198 109.139 28.5873C114.336 30.7121 115.053 38.6225 113.92 43.4161Z" fill="#FFD4CD"/>
<path opacity="0.2" d="M111.008 47.7234C110.7 47.9493 110.375 48.1504 110.035 48.325C109.144 48.8001 108.158 49.0697 107.149 49.114C106.14 49.1583 105.134 48.9762 104.205 48.581C104.446 47.9417 104.766 47.3353 105.158 46.7762C107.159 46.5253 109.189 46.8541 111.008 47.7234Z" fill="black"/>
<path d="M100.301 54.6226C102.925 57.0034 109.344 56.1266 109.344 56.1266C109.344 56.1266 113.35 55.0258 112.506 53.7778C110.15 53.3874 109.005 52.2866 108.531 50.8722C108.276 49.9984 108.195 49.0827 108.294 48.1778C108.332 47.6731 108.398 47.171 108.493 46.6738L100.557 40.7986C101.594 44.677 102.867 51.813 100.301 54.6226Z" fill="#FFD4CD"/>
<path d="M111.008 38.5778L112.154 39.0066L111.584 36.6642C111.584 36.6642 113.261 34.1042 111.584 31.8834C111.584 31.8834 116.218 30.4754 113.6 28.0434C112.627 27.1346 111.418 28.0434 108.218 26.6546C106.483 25.893 101.056 25.8354 100.787 28.0434C100.787 28.0434 96.8768 28.0434 96.4544 34.6994C96.3309 36.6495 96.6379 38.6029 97.3535 40.4212C98.069 42.2394 99.1758 43.8781 100.595 45.221C100.595 45.221 105.318 46.3346 107.635 44.4402C109.952 42.5458 111.008 38.5778 111.008 38.5778Z" fill="#263238"/>
<path d="M107.987 38.9553C108.087 39.4557 108.298 39.9275 108.603 40.3361C108.909 40.7447 109.302 41.0798 109.754 41.3169C110.835 41.7778 111.552 40.2545 111.392 38.6545C111.245 37.2337 110.509 35.2369 109.35 35.5057C108.192 35.7745 107.61 37.5217 107.987 38.9553Z" fill="#FFD4CD"/>
<path opacity="0.2" d="M112.083 129.285C111.475 136.863 110.803 144.747 110.163 151.301C109.19 141.835 108 135.09 108 135.09C108 135.09 106.886 134.175 103.821 129.285C100.755 124.395 103.821 115.256 103.821 115.256C103.68 123.743 112.083 129.285 112.083 129.285Z" fill="black"/>
<path d="M130.803 151.608L130.214 153.829H115.904V151.775L130.803 151.608Z" fill="#C1CB9C"/>
<path d="M110.675 151.915L110.246 153.97H94.0416L93.0624 151.915H110.675Z" fill="#C1CB9C"/>
<path d="M112.672 53.0801C112.672 53.0801 110.342 49.4001 104.474 49.1377C98.6048 48.8753 98.1568 52.9137 98.1568 52.9137L112.672 53.0801Z" fill="#C1CB9C"/>
<path opacity="0.5" d="M112.672 53.0801C112.672 53.0801 110.342 49.4001 104.474 49.1377C98.6048 48.8753 98.1568 52.9137 98.1568 52.9137L112.672 53.0801Z" fill="white"/>
<path d="M91.5968 50.7825C93.3671 70.7075 93.1527 90.7591 90.9568 110.642L125.344 108.542C124.96 73.4513 120.256 51.3457 120.256 51.3457C120.256 51.3457 111.392 53.2081 104.179 52.9393C99.9123 52.7411 95.6861 52.0167 91.5968 50.7825Z" fill="#C1CB9C"/>
<path d="M120.282 51.3714C120.282 51.3714 124.877 62.1106 125.37 72.9778C125.862 83.845 106.707 98.7826 106.707 98.7826C106.707 98.7826 91.9424 88.6194 80.5504 89.541C69.1584 90.4626 65.6128 94.5138 65.6128 94.5138C65.6128 94.5138 74.4704 75.5634 89.8944 68.9586C89.8944 68.9586 86.6944 58.0466 91.5968 50.8338C91.5968 50.7826 102.259 54.277 120.282 51.3714Z" fill="#C1CB9C"/>
<path opacity="0.6" d="M125.37 72.9777C125.386 73.2847 125.386 73.5923 125.37 73.8993C125.343 74.374 125.285 74.8465 125.197 75.3137C124.988 76.4129 124.66 77.486 124.218 78.5137C122.85 81.5217 121.066 84.3224 118.918 86.8337C117.83 88.1649 116.678 89.4449 115.539 90.6353C112.78 93.5448 109.829 96.2666 106.707 98.7825C102.83 96.2157 98.707 94.0397 94.4 92.2865C93.088 91.7617 91.7248 91.2689 90.336 90.8529C87.182 89.8319 83.8674 89.398 80.5568 89.5729C77.3969 89.7832 74.2765 90.394 71.2704 91.3905C70.752 91.5697 70.272 91.7617 69.8304 91.9473L69.4336 92.1201C68.4717 92.5372 67.5541 93.0496 66.6944 93.6497C66.5984 93.7137 66.5088 93.7841 66.4256 93.8481C66.3424 93.9121 66.1248 94.0785 66.0096 94.1809L65.856 94.3153C65.8168 94.3462 65.7804 94.3804 65.7472 94.4177L65.6704 94.4945L65.6256 94.5393C65.6256 94.5073 65.7024 94.3729 65.8176 94.1425L65.9968 93.7905C66.176 93.4321 66.4256 92.9521 66.752 92.3697L66.8928 92.1137L67.1424 91.6721C67.2256 91.5185 67.3152 91.3585 67.4112 91.1985C67.7824 90.5585 68.2176 89.8161 68.6912 89.0289C71.322 84.7719 74.436 80.8332 77.9712 77.2913C79.2316 76.038 80.5652 74.8605 81.9648 73.7649C84.3839 71.8395 87.043 70.2368 89.8752 68.9969C89.141 66.1864 88.8071 63.2863 88.8832 60.3825C88.9019 59.4678 88.9767 58.5552 89.1072 57.6497C89.4007 55.2003 90.2525 52.8509 91.5968 50.7825C93.1695 51.2397 94.7739 51.5798 96.3968 51.8001C98.5177 52.1236 100.654 52.3372 102.797 52.4401C107.107 52.633 111.426 52.4811 115.712 51.9857C117.171 51.8278 118.688 51.6145 120.262 51.3457L120.41 51.7041C121.428 54.259 122.306 56.8677 123.04 59.5185C123.322 60.5361 123.603 61.6241 123.872 62.7633C124.141 63.9025 124.346 64.9201 124.55 66.0529C124.974 68.3409 125.247 70.6541 125.37 72.9777Z" fill="white"/>
<g opacity="0.2">
<path d="M120.96 81.7009L118.938 86.8721C117.85 88.2033 116.698 89.4833 115.558 90.6737L111.443 82.9937L120.96 81.7009Z" fill="white"/>
<path d="M86.1184 76.7601L77.9904 77.2273C79.2508 75.9741 80.5844 74.7965 81.984 73.7009L86.1184 76.7601Z" fill="white"/>
<path d="M95.4944 56.2866L94.624 64.7346L88.864 60.3762C88.8827 59.4616 88.9575 58.5489 89.088 57.6434L95.4944 56.2866Z" fill="white"/>
<path d="M98.1568 78.5459L95.4944 70.4307L103.59 68.9331L98.1568 78.5459Z" fill="white"/>
<path d="M112.083 70.8147V76.8883L117.894 74.8019L112.083 70.8147Z" fill="white"/>
<path d="M97.1328 88.4081L94.4 92.2481C93.088 91.7233 91.7248 91.2305 90.336 90.8145L88.2752 86.1169L97.1328 88.4081Z" fill="white"/>
<path d="M76.3712 82.5842L80.5504 84.357L76.3712 87.205V82.5842Z" fill="white"/>
<path d="M71.264 91.333C67.104 92.7858 65.6128 94.4882 65.6128 94.4882C66.5416 92.5942 67.5735 90.7525 68.704 88.9714L71.264 91.333Z" fill="white"/>
<path d="M105.414 83.4739L101.818 87.2051L107.258 88.1587L105.414 83.4739Z" fill="white"/>
<path d="M105.414 60.0499L109.645 65.7459L112.672 59.2947L105.414 60.0499Z" fill="white"/>
<path d="M124.57 66.0786L119.162 62.5202L123.059 59.5442C123.61 61.5154 124.16 63.7362 124.57 66.0786Z" fill="white"/>
<path d="M125.363 73.8995C125.247 75.5005 124.857 77.0698 124.211 78.5395L121.946 72.9651L125.363 73.8995Z" fill="white"/>
<path d="M120.429 51.7297L117.005 55.2625L115.725 52.0113C117.184 51.8535 118.701 51.6401 120.275 51.3713L120.429 51.7297Z" fill="white"/>
<path d="M102.816 52.4465L100.301 57.7713L96.3968 51.8257C98.5244 52.1434 100.667 52.3506 102.816 52.4465Z" fill="white"/>
</g>
<path opacity="0.2" d="M125.37 72.9778C125.386 73.2848 125.386 73.5924 125.37 73.8994C125.343 74.3741 125.285 74.8466 125.197 75.3138C120.717 68.2098 121.779 61.7842 121.779 61.7842L123.898 62.789C124.141 63.845 124.371 64.9458 124.576 66.0786C124.99 68.3587 125.255 70.6633 125.37 72.9778Z" fill="black"/>
<path d="M107.219 23.0898C114.816 20.4722 116.723 30.5906 109.178 37.4322C101.632 44.2738 92.9664 45.1122 91.9808 41.6434C90.9952 38.1746 95.6224 27.1026 107.219 23.0898Z" fill="#C1CB9C"/>
<path d="M99.6096 22.5776C103.507 22.5776 109.043 26.5456 109.043 26.5456C109.043 26.5456 109.837 30.7696 105.952 34.4816C102.067 38.1936 98.56 38.7824 96.3968 37.3424C94.2336 35.9024 93.632 30.3024 93.632 30.3024C93.8292 29.6401 94.1836 29.0352 94.665 28.5393C95.1464 28.0434 95.7406 27.6712 96.3968 27.4544C96.3968 27.4544 97.0368 22.6224 99.6096 22.5776Z" fill="#C1CB9C"/>
<path opacity="0.2" d="M105.952 34.4818C102.067 38.1938 98.5728 38.7826 96.3968 37.349C96.0176 37.0828 95.6955 36.7433 95.4496 36.3506C94.0416 34.2322 93.632 30.3218 93.632 30.3218C97.344 34.8018 101.645 30.1746 102.24 27.0514C102.416 26.3095 102.418 25.537 102.246 24.7942C102.074 24.0514 101.733 23.3585 101.248 22.7698C103.808 23.3202 106.611 24.9586 108.058 25.8866C108.698 26.277 109.043 26.5266 109.043 26.5266C109.043 26.5266 109.837 30.7698 105.952 34.4818Z" fill="black"/>
<path opacity="0.6" d="M105.952 34.4817C102.067 38.1937 98.5728 38.7825 96.3968 37.3489C96.0176 37.0827 95.6955 36.7432 95.4496 36.3505C99.3408 37.5089 103.974 35.5825 106.464 32.1201C107.784 30.3278 108.356 28.0924 108.058 25.8865C108.698 26.2769 109.043 26.5265 109.043 26.5265C109.043 26.5265 109.837 30.7697 105.952 34.4817Z" fill="white"/>
<path d="M120.282 51.3713C120.282 51.3713 117.28 57.4385 124.57 67.0577L140.64 55.2625L134.24 43.6465L120.282 51.3713Z" fill="#C1CB9C"/>
<path opacity="0.6" d="M140.64 55.2626L136.448 58.341L130.246 62.9042L124.57 67.077C124.198 66.5906 123.859 66.1106 123.539 65.6434C122.889 64.6913 122.299 63.6995 121.773 62.6738C120.475 60.2912 119.758 57.6357 119.68 54.9234C119.637 53.7073 119.855 52.496 120.32 51.3714L123.891 49.3874L130.042 45.9762L132.742 44.4722L134.266 43.6274L140.64 55.2626Z" fill="white"/>
<g opacity="0.2">
<path d="M136.448 58.322L130.246 62.8852L127.514 56.8052L136.448 58.322Z" fill="white"/>
<path d="M135.872 48.5426L130.15 50.8082L130.003 45.9762L132.704 44.4722L135.872 48.5426Z" fill="white"/>
<path d="M125.901 53.3042L119.68 54.9234C119.637 53.7073 119.855 52.496 120.32 51.3714L123.891 49.3875L125.901 53.3042Z" fill="white"/>
<path d="M124.57 61.0674L123.52 65.6242C122.87 64.672 122.28 63.6802 121.754 62.6546L124.57 61.0674Z" fill="white"/>
</g>
<path d="M164.122 160.613L154.24 159.832L157.504 118.162L167.418 118.936L164.122 160.613ZM156.269 158.053L162.355 158.526L165.318 120.683L159.238 120.21L156.269 158.053Z" fill="#263238"/>
<path d="M157.293 214.328L158.573 214.43C158.929 214.425 159.283 214.495 159.611 214.634C159.939 214.773 160.234 214.98 160.478 215.24C160.721 215.5 160.908 215.808 161.026 216.144C161.144 216.48 161.19 216.837 161.162 217.193C161.134 217.548 161.032 217.893 160.862 218.207C160.693 218.52 160.46 218.795 160.178 219.014C159.897 219.232 159.572 219.389 159.227 219.475C158.881 219.561 158.521 219.573 158.17 219.512L156.89 219.41C156.533 219.416 156.179 219.347 155.851 219.208C155.522 219.07 155.226 218.864 154.982 218.604C154.738 218.344 154.55 218.036 154.432 217.7C154.314 217.364 154.267 217.006 154.294 216.651C154.322 216.295 154.424 215.949 154.593 215.636C154.762 215.322 154.995 215.047 155.277 214.828C155.559 214.609 155.883 214.452 156.229 214.366C156.575 214.28 156.935 214.267 157.286 214.328H157.293Z" fill="#263238"/>
<path opacity="0.1" d="M154.509 216.619C154.467 217.132 154.579 217.645 154.829 218.095C155.08 218.544 155.458 218.908 155.916 219.143C156.374 219.377 156.891 219.47 157.402 219.41C157.912 219.35 158.394 219.14 158.785 218.806C159.176 218.472 159.46 218.03 159.6 217.535C159.739 217.04 159.729 216.514 159.57 216.025C159.41 215.536 159.11 215.105 158.706 214.787C158.301 214.469 157.812 214.278 157.299 214.238C156.959 214.207 156.615 214.244 156.29 214.347C155.964 214.451 155.662 214.618 155.402 214.84C155.142 215.062 154.929 215.334 154.775 215.639C154.622 215.945 154.531 216.278 154.509 216.619Z" fill="white"/>
<path d="M150.304 213.784L151.584 213.88C151.941 213.874 152.294 213.943 152.623 214.081C152.951 214.22 153.247 214.426 153.492 214.686C153.736 214.946 153.923 215.253 154.042 215.59C154.16 215.926 154.207 216.284 154.179 216.639C154.151 216.995 154.05 217.34 153.88 217.654C153.711 217.968 153.478 218.243 153.197 218.462C152.915 218.681 152.591 218.838 152.245 218.924C151.899 219.01 151.538 219.023 151.187 218.962L149.907 218.866C149.551 218.872 149.197 218.803 148.868 218.664C148.54 218.526 148.244 218.32 148 218.06C147.755 217.8 147.568 217.492 147.45 217.156C147.331 216.82 147.284 216.462 147.312 216.107C147.34 215.751 147.442 215.406 147.611 215.092C147.78 214.778 148.013 214.503 148.294 214.284C148.576 214.065 148.9 213.908 149.246 213.822C149.592 213.736 149.953 213.723 150.304 213.784Z" fill="#263238"/>
<path opacity="0.2" d="M147.52 216.075C147.48 216.588 147.592 217.101 147.844 217.549C148.095 217.997 148.474 218.361 148.932 218.594C149.39 218.828 149.907 218.92 150.418 218.859C150.928 218.798 151.409 218.587 151.8 218.253C152.19 217.919 152.473 217.476 152.612 216.981C152.751 216.487 152.74 215.961 152.581 215.473C152.421 214.984 152.12 214.554 151.716 214.236C151.312 213.918 150.823 213.727 150.31 213.688C149.624 213.637 148.946 213.859 148.423 214.306C147.9 214.753 147.576 215.389 147.52 216.075Z" fill="white"/>
<path d="M149.139 214.552L159.042 215.328C159.99 215.402 160.818 214.694 160.893 213.746L165.608 153.559C165.683 152.611 164.974 151.783 164.026 151.708L154.124 150.933C153.176 150.858 152.347 151.567 152.273 152.514L147.557 212.701C147.483 213.649 148.191 214.478 149.139 214.552Z" fill="#263238"/>
<path opacity="0.2" d="M154.083 214.931L159.047 215.32C159.995 215.394 160.823 214.686 160.898 213.738L165.613 153.551C165.688 152.603 164.979 151.774 164.031 151.7L159.067 151.311C158.12 151.237 157.291 151.945 157.217 152.893L152.501 213.08C152.427 214.028 153.135 214.856 154.083 214.931Z" fill="white"/>
<path d="M157.966 119.557L166.318 120.225C167.025 120.282 167.644 119.755 167.701 119.048L167.764 118.26C167.82 117.554 167.293 116.935 166.586 116.878L158.234 116.21C157.527 116.153 156.908 116.681 156.852 117.387L156.789 118.175C156.732 118.882 157.259 119.501 157.966 119.557Z" fill="#263238"/>
<path opacity="0.2" d="M157.966 119.557L166.318 120.225C167.025 120.282 167.644 119.755 167.701 119.048L167.764 118.26C167.82 117.554 167.293 116.935 166.586 116.878L158.234 116.21C157.527 116.153 156.908 116.681 156.852 117.387L156.789 118.175C156.732 118.882 157.259 119.501 157.966 119.557Z" fill="white"/>
<path opacity="0.2" d="M158.158 120.388L158.854 120.443C159.558 120.498 160.174 119.971 160.229 119.266L160.291 118.482C160.346 117.777 159.819 117.161 159.114 117.106L158.419 117.051C157.714 116.996 157.098 117.523 157.043 118.228L156.982 119.012C156.927 119.717 157.453 120.333 158.158 120.388Z" fill="black"/>
<path d="M184.026 158.072L179.763 212.472C179.688 213.433 179.235 214.324 178.503 214.95C177.771 215.577 176.82 215.887 175.859 215.813L156.019 214.258C155.346 214.201 154.724 213.88 154.286 213.366C153.848 212.852 153.632 212.185 153.683 211.512L158.08 154.955C158.136 154.283 158.455 153.659 158.968 153.22C159.481 152.782 160.146 152.563 160.819 152.613L180.659 154.168C181.137 154.202 181.603 154.33 182.032 154.545C182.46 154.76 182.841 155.057 183.154 155.42C183.467 155.783 183.705 156.204 183.855 156.659C184.004 157.114 184.062 157.594 184.026 158.072Z" fill="#C1CB9C"/>
<path opacity="0.2" d="M184.026 158.072L179.763 212.472C179.688 213.433 179.235 214.324 178.503 214.95C177.771 215.577 176.82 215.887 175.859 215.813L156.019 214.258C155.346 214.201 154.724 213.88 154.286 213.366C153.848 212.852 153.632 212.185 153.683 211.512L158.08 154.955C158.136 154.283 158.455 153.659 158.968 153.22C159.481 152.782 160.146 152.563 160.819 152.613L180.659 154.168C181.137 154.202 181.603 154.33 182.032 154.545C182.46 154.76 182.841 155.057 183.154 155.42C183.467 155.783 183.705 156.204 183.855 156.659C184.004 157.114 184.062 157.594 184.026 158.072Z" fill="white"/>
<path opacity="0.2" d="M170.381 153.362V153.438L169.67 153.381C168.996 153.331 168.33 153.551 167.817 153.991C167.303 154.431 166.985 155.056 166.931 155.73L162.502 212.267C162.462 212.835 162.612 213.4 162.928 213.872C163.245 214.345 163.71 214.699 164.25 214.878L156 214.238C155.327 214.183 154.704 213.864 154.265 213.351C153.826 212.838 153.608 212.172 153.658 211.499L158.08 154.962C158.134 154.288 158.452 153.663 158.965 153.223C159.479 152.783 160.145 152.563 160.819 152.613L170.381 153.362Z" fill="black"/>
<path opacity="0.2" d="M170.213 155.343L169.919 155.32C169.535 155.29 169.2 155.577 169.17 155.961L164.827 211.388C164.797 211.772 165.084 212.108 165.468 212.138L165.761 212.161C166.145 212.191 166.481 211.904 166.511 211.52L170.854 156.093C170.884 155.709 170.597 155.373 170.213 155.343Z" fill="black"/>
<path opacity="0.2" d="M174.187 155.927L173.893 155.904C173.509 155.874 173.173 156.161 173.143 156.545L168.801 211.972C168.771 212.356 169.058 212.692 169.442 212.722L169.735 212.745C170.119 212.775 170.455 212.488 170.485 212.104L174.828 156.677C174.858 156.293 174.571 155.957 174.187 155.927Z" fill="black"/>
<path opacity="0.2" d="M178.163 156.166L177.869 156.143C177.485 156.113 177.149 156.4 177.119 156.784L172.776 212.211C172.746 212.595 173.033 212.931 173.417 212.961L173.711 212.984C174.095 213.014 174.431 212.727 174.461 212.343L178.804 156.916C178.834 156.532 178.547 156.196 178.163 156.166Z" fill="black"/>
<path opacity="0.2" d="M182.126 156.398L181.833 156.375C181.448 156.345 181.113 156.632 181.083 157.016L176.74 212.443C176.71 212.827 176.997 213.163 177.381 213.193L177.674 213.216C178.058 213.246 178.394 212.959 178.424 212.575L182.767 157.148C182.797 156.764 182.51 156.428 182.126 156.398Z" fill="black"/>
</svg>
