<svg width="17" height="20" viewBox="0 0 17 20" fill="none" xmlns="http://www.w3.org/2000/svg">
<path d="M13.7499 15.4867L7.00072 11.5292L7.88102 10.995L8.46815 10.6525L9.05529 10.9942L10.5219 11.85L11.6954 12.5342L13.1628 13.39L14.3371 14.075L15.2174 14.5883L13.7499 15.4867ZM11.109 17.0475L4.38025 13.0692L5.84768 12.2133L12.5765 16.1717L11.109 17.0475ZM8.48857 18.5875L1.75978 14.6308L3.22721 13.775L9.956 17.7325L8.48857 18.5875ZM1.17427 11.8717L7.90306 7.915V9.6475L7.31593 9.98917L5.8485 10.845L4.67422 11.5292L3.20761 12.385L2.03415 13.07L1.17427 13.5825V11.8708V11.8717ZM1.17427 8.77L7.90306 4.8125V6.54583L1.17427 10.4817V8.77ZM1.17427 5.66833L7.90306 1.71083V3.4225L1.17427 7.38V5.66833ZM9.07652 1.71083L10.544 2.56667V10.5025L9.66366 9.98917L9.07652 9.6475V1.71083ZM11.697 3.25083L13.1636 4.10667V12.0425L11.6962 11.1867V3.25083H11.697ZM14.3379 4.81333L15.8045 5.66833V13.6042L14.3379 12.7483V4.81333ZM17 4.98417L15.7833 4.29917L14.3166 3.44417L13.1636 2.73833L11.6962 1.8825L10.5227 1.1975L9.05447 0.3425L8.46815 0L7.88102 0.3425L0 4.98417V14.9942L0.586319 15.3358L8.48857 20L9.66284 19.315L11.1303 18.46L12.3037 17.7758L13.7712 16.92L14.9446 16.2358L16.412 15.38L16.9984 15.0375L17 4.98417Z" fill="#C1CB9C"/>
</svg>
