<svg width="18" height="20" viewBox="0 0 18 20" fill="none" xmlns="http://www.w3.org/2000/svg">
<g clip-path="url(#clip0_1_3358)">
<path d="M14.354 10.534C14.3452 8.90076 15.0741 7.668 16.5493 6.76012C15.7238 5.56297 14.4769 4.90432 12.8305 4.77526C11.2719 4.65065 9.56835 5.69648 8.9449 5.69648C8.28633 5.69648 6.77599 4.81976 5.59055 4.81976C3.14065 4.85981 0.537079 6.80018 0.537079 10.7477C0.537079 11.9137 0.747823 13.1182 1.16931 14.3614C1.7313 15.9947 3.75971 20 5.87594 19.9332C6.98234 19.9065 7.76385 19.1366 9.20394 19.1366C10.6001 19.1366 11.3246 19.9332 12.5583 19.9332C14.6921 19.9021 16.5273 16.2617 17.063 14.6239C14.2003 13.2577 14.354 10.6186 14.354 10.534ZM11.869 3.22652C13.0676 1.7846 12.9578 0.47174 12.9227 0C11.8646 0.0623053 10.6396 0.729862 9.94155 1.55318C9.17321 2.43436 8.72099 3.5247 8.81758 4.753C9.9635 4.84201 11.0084 4.24566 11.869 3.22652Z" fill="black"/>
</g>
<defs>
<clipPath id="clip0_1_3358">
<rect width="17.6" height="20" fill="white"/>
</clipPath>
</defs>
</svg>
