<svg width="17" height="14" viewBox="0 0 17 14" fill="none" xmlns="http://www.w3.org/2000/svg">
<path fill-rule="evenodd" clip-rule="evenodd" d="M12.6982 0C13.838 0 14.9345 0.412222 15.7411 1.15189C16.5486 1.89 17 2.88556 17 3.92778V10.0722C17 12.2422 15.0705 14 12.6982 14H4.301C1.92865 14 0 12.2422 0 10.0722V3.92778C0 1.75778 1.92015 0 4.301 0H12.6982ZM14.0505 5.08667L14.1185 5.02444C14.3217 4.79889 14.3217 4.47222 14.1092 4.24667C13.991 4.13078 13.8287 4.06 13.6595 4.04444C13.481 4.03589 13.311 4.09111 13.1827 4.2L9.35003 7C8.85703 7.37411 8.15068 7.37411 7.65003 7L3.82503 4.2C3.56068 4.02111 3.19518 4.04444 2.97503 4.25444C2.74553 4.46444 2.72003 4.79889 2.91468 5.03222L3.02603 5.13333L6.89353 7.89444C7.36953 8.23666 7.94668 8.42333 8.55103 8.42333C9.15368 8.42333 9.74103 8.23666 10.2162 7.89444L14.0505 5.08667Z" fill="black"/>
</svg>
