<svg width="44" height="44" viewBox="0 0 44 44" fill="none" xmlns="http://www.w3.org/2000/svg">
<path d="M17.4166 17.0959V26.9042C17.4166 27.607 17.7375 28.1417 18.3791 28.5084C19.0208 28.875 19.6472 28.8445 20.2583 28.4167L27.8666 23.5584C28.4472 23.1917 28.7375 22.6722 28.7375 22C28.7375 21.3278 28.4472 20.8084 27.8666 20.4417L20.2583 15.5834C19.6472 15.1556 19.0208 15.125 18.3791 15.4917C17.7375 15.8584 17.4166 16.3931 17.4166 17.0959ZM22 40.3334C19.4638 40.3334 17.0805 39.8518 14.85 38.8887C12.6194 37.9268 10.6791 36.6209 9.02913 34.9709C7.37913 33.3209 6.07318 31.3806 5.11129 29.15C4.14818 26.9195 3.66663 24.5361 3.66663 22C3.66663 19.4639 4.14818 17.0806 5.11129 14.85C6.07318 12.6195 7.37913 10.6792 9.02913 9.02919C10.6791 7.37919 12.6194 6.07263 14.85 5.10952C17.0805 4.14763 19.4638 3.66669 22 3.66669C24.5361 3.66669 26.9194 4.14763 29.15 5.10952C31.3805 6.07263 33.3208 7.37919 34.9708 9.02919C36.6208 10.6792 37.9267 12.6195 38.8886 14.85C39.8517 17.0806 40.3333 19.4639 40.3333 22C40.3333 24.5361 39.8517 26.9195 38.8886 29.15C37.9267 31.3806 36.6208 33.3209 34.9708 34.9709C33.3208 36.6209 31.3805 37.9268 29.15 38.8887C26.9194 39.8518 24.5361 40.3334 22 40.3334Z" fill="black"/>
</svg>
