<svg width="28" height="19" viewBox="0 0 28 19" fill="none" xmlns="http://www.w3.org/2000/svg">
<path d="M4.17484 0.46633L14 7.13312L23.7743 0.500873C23.9902 0.344942 24.2502 0.220202 24.5389 0.134134C24.8276 0.0480663 25.1389 0.00244278 25.4542 0C26.1293 0 26.7767 0.181967 27.2541 0.50587C27.7314 0.829773 27.9996 1.26908 27.9996 1.72715C28.0055 1.9389 27.9476 2.14924 27.8294 2.34526C27.7113 2.54129 27.5353 2.71885 27.3123 2.86707L17.4108 9.49932L27.3123 16.2179C27.7319 16.4964 27.9779 16.8735 27.9996 17.2715C27.9996 17.7296 27.7314 18.1689 27.2541 18.4928C26.7767 18.8167 26.1293 18.9986 25.4542 18.9986C25.1298 19.0078 24.8062 18.971 24.5038 18.8907C24.2015 18.8105 23.927 18.6884 23.6979 18.5323L14 11.8655L4.20029 18.515C3.98522 18.6658 3.72829 18.7861 3.44432 18.8691C3.16035 18.9521 2.85497 18.9961 2.54579 18.9986C1.87072 18.9986 1.22329 18.8167 0.745938 18.4928C0.268587 18.1689 0.00041415 17.7296 0.00041415 17.2715C-0.00552039 17.0597 0.0523791 16.8494 0.17056 16.6534C0.288741 16.4573 0.46471 16.2798 0.687667 16.1316L10.5892 9.49932L0.687667 2.78071C0.26815 2.50222 0.0221507 2.1251 0.00041415 1.72715C0.00041415 1.26908 0.268587 0.829773 0.745938 0.50587C1.22329 0.181967 1.87072 0 2.54579 0C3.15668 0.00518145 3.74212 0.172715 4.17484 0.46633Z" fill="black"/>
</svg>
