<svg width="21" height="21" viewBox="0 0 21 21" fill="none" xmlns="http://www.w3.org/2000/svg">
<path d="M10.5 0C8.4233 0 6.39323 0.615814 4.66652 1.76957C2.9398 2.92332 1.59399 4.5632 0.799269 6.48182C0.00454949 8.40045 -0.203385 10.5116 0.201759 12.5484C0.606904 14.5852 1.60693 16.4562 3.07538 17.9246C4.54383 19.3931 6.41475 20.3931 8.45155 20.7982C10.4884 21.2034 12.5996 20.9954 14.5182 20.2007C16.4368 19.406 18.0767 18.0602 19.2304 16.3335C20.3842 14.6068 21 12.5767 21 10.5C20.9947 7.71686 19.8867 5.04925 17.9187 3.08127C15.9508 1.1133 13.2831 0.0053368 10.5 0ZM10.5 19.3846C8.74279 19.3846 7.02504 18.8635 5.56398 17.8873C4.10291 16.911 2.96414 15.5234 2.29169 13.9C1.61923 12.2765 1.44329 10.4901 1.7861 8.7667C2.12892 7.04325 2.9751 5.46016 4.21763 4.21763C5.46017 2.97509 7.04325 2.12891 8.7667 1.7861C10.4901 1.44328 12.2765 1.61923 13.9 2.29169C15.5234 2.96414 16.911 4.1029 17.8873 5.56397C18.8635 7.02504 19.3846 8.74279 19.3846 10.5C19.3819 12.8555 18.445 15.1138 16.7794 16.7794C15.1138 18.445 12.8555 19.3819 10.5 19.3846ZM14.5385 12.5192C14.5358 13.2682 14.2371 13.9857 13.7075 14.5152C13.178 15.0448 12.4605 15.3435 11.7115 15.3462H11.3077V16.1538C11.3077 16.3681 11.2226 16.5735 11.0711 16.725C10.9197 16.8764 10.7142 16.9615 10.5 16.9615C10.2858 16.9615 10.0803 16.8764 9.92888 16.725C9.77741 16.5735 9.69231 16.3681 9.69231 16.1538V15.3462H8.07693C7.86271 15.3462 7.65727 15.2611 7.5058 15.1096C7.35433 14.9581 7.26923 14.7527 7.26923 14.5385C7.26923 14.3242 7.35433 14.1188 7.5058 13.9673C7.65727 13.8159 7.86271 13.7308 8.07693 13.7308H11.7115C12.0329 13.7308 12.341 13.6031 12.5682 13.3759C12.7954 13.1487 12.9231 12.8405 12.9231 12.5192C12.9231 12.1979 12.7954 11.8897 12.5682 11.6625C12.341 11.4353 12.0329 11.3077 11.7115 11.3077H9.28846C8.53872 11.3077 7.81968 11.0099 7.28953 10.4797C6.75938 9.94955 6.46154 9.23051 6.46154 8.48077C6.46154 7.73102 6.75938 7.01198 7.28953 6.48183C7.81968 5.95168 8.53872 5.65384 9.28846 5.65384H9.69231V4.84615C9.69231 4.63194 9.77741 4.4265 9.92888 4.27503C10.0803 4.12356 10.2858 4.03846 10.5 4.03846C10.7142 4.03846 10.9197 4.12356 11.0711 4.27503C11.2226 4.4265 11.3077 4.63194 11.3077 4.84615V5.65384H12.9231C13.1373 5.65384 13.3427 5.73894 13.4942 5.89041C13.6457 6.04188 13.7308 6.24732 13.7308 6.46154C13.7308 6.67575 13.6457 6.88119 13.4942 7.03266C13.3427 7.18413 13.1373 7.26923 12.9231 7.26923H9.28846C8.96714 7.26923 8.65898 7.39687 8.43178 7.62408C8.20457 7.85129 8.07693 8.15945 8.07693 8.48077C8.07693 8.80209 8.20457 9.11025 8.43178 9.33745C8.65898 9.56466 8.96714 9.69231 9.28846 9.69231H11.7115C12.4605 9.69497 13.178 9.99366 13.7075 10.5232C14.2371 11.0528 14.5358 11.7703 14.5385 12.5192Z" fill="black"/>
</svg>
