<svg width="205" height="134" viewBox="0 0 205 134" fill="none" xmlns="http://www.w3.org/2000/svg">
<path d="M176.082 19.7807C174.059 18.6785 173.138 19.5948 172.403 18.6785C171.668 17.7623 174.426 15.3673 168.91 12.9769C168.91 12.9769 168.543 7.8286 161.004 7.64263C153.466 7.45666 155.47 12.7909 153.461 14.0791C151.452 15.3673 150.889 13.3443 148.866 14.6325C146.843 15.9207 147.764 18.4925 146.108 18.8599C144.453 19.2274 142.244 17.2043 140.212 18.4925C138.18 19.7807 138.193 20.883 137.272 20.883C136.352 20.883 134.515 20.1482 133.408 20.883C132.301 21.6178 131.017 22.5386 131.017 22.5386H177.551C177.551 22.5386 178.105 20.883 176.082 19.7807Z" fill="white" stroke="#3A4646" stroke-linecap="round" stroke-linejoin="round"/>
<path d="M59.436 47.0007C58.4154 46.4428 57.9482 46.9055 57.5763 46.4428C57.2044 45.9801 58.6014 44.7691 55.8118 43.5625C55.8118 43.5625 55.6259 40.9634 51.8202 40.8727C48.0146 40.782 49.0352 43.4718 48.0101 44.1204C46.9849 44.769 46.7128 43.7485 45.6922 44.4016C44.6716 45.0548 45.1343 46.3521 44.2951 46.5381C43.456 46.724 42.3447 45.6989 41.3241 46.3521C40.3035 47.0053 40.3035 47.5586 39.8409 47.5586C39.3782 47.5586 38.4438 47.1867 37.8904 47.5586C37.337 47.9306 36.6793 48.3932 36.6793 48.3932H60.1799C60.1799 48.3932 60.4566 47.5586 59.436 47.0007Z" fill="white" stroke="#3A4646" stroke-linecap="round" stroke-linejoin="round"/>
<path d="M102.074 6.63111C101.053 6.07319 100.586 6.53585 100.214 6.07319C99.842 5.61052 101.239 4.39944 98.4495 3.19288C98.4495 3.19288 98.2635 0.593804 94.4578 0.503086C90.6522 0.412368 91.6728 3.10216 90.6477 3.7508C89.6226 4.39944 89.3504 3.37886 88.3298 4.03203C87.3092 4.6852 87.7719 5.98247 86.9328 6.16844C86.0936 6.35442 84.9823 5.3293 83.9617 5.98247C82.9412 6.63564 82.9412 7.18903 82.4785 7.18903C82.0158 7.18903 81.0814 6.81708 80.528 7.18903C79.9747 7.56097 79.317 8.02363 79.317 8.02363H102.818C102.818 8.02363 103.094 7.18903 102.074 6.63111Z" fill="white" stroke="#3A4646" stroke-linecap="round" stroke-linejoin="round"/>
<path d="M163.077 129.623H184.954C184.537 126.951 182.817 127.423 182.591 123.272C182.477 121.186 184.405 118.605 184.242 115.865C184.101 113.597 181.874 111.293 181.702 108.707C181.547 106.376 183.448 103.79 183.262 101.278C183.09 98.9053 180.831 96.6238 180.631 94.1562C180.432 91.6887 182.296 89.1349 182.078 86.7037C181.86 84.2724 179.561 82.0272 179.32 79.6277C179.08 77.2282 180.867 74.5066 180.595 72.1434C180.3 69.6396 177.937 67.4714 177.615 65.1626C177.256 62.5908 178.935 59.8465 178.522 57.6285C178.041 54.9069 175.51 52.9383 174.979 50.9335C173.986 47.1959 174.109 43.5898 172.938 43.3585C171.686 43.1045 171.401 46.6379 170.453 50.5842C169.999 52.5709 167.5 54.5803 167.096 57.3019C166.765 59.5063 168.516 62.1825 168.23 64.7453C167.971 67.036 165.667 69.2404 165.445 71.7352C165.232 74.0802 167.105 76.6657 166.919 79.1151C166.733 81.5645 164.501 83.7735 164.347 86.1911C164.193 88.6088 166.121 91.1489 165.989 93.5348C165.858 95.9207 163.662 98.2975 163.549 100.656C163.431 103.146 165.395 105.646 165.3 107.973C165.195 110.535 163.032 112.885 162.95 115.126C162.85 117.847 164.846 120.351 164.787 122.42C164.651 126.915 162.596 125.985 162.519 129.6L163.077 129.623Z" fill="#C1CB9C"/>
<path opacity="0.5" d="M163.077 129.623H184.954C184.537 126.951 182.817 127.423 182.591 123.272C182.477 121.186 184.405 118.605 184.242 115.865C184.101 113.597 181.874 111.293 181.702 108.707C181.547 106.376 183.448 103.79 183.262 101.278C183.09 98.9053 180.831 96.6238 180.631 94.1562C180.432 91.6887 182.296 89.1349 182.078 86.7037C181.86 84.2724 179.561 82.0272 179.32 79.6277C179.08 77.2282 180.867 74.5066 180.595 72.1434C180.3 69.6396 177.937 67.4714 177.615 65.1626C177.256 62.5908 178.935 59.8465 178.522 57.6285C178.041 54.9069 175.51 52.9383 174.979 50.9335C173.986 47.1959 174.109 43.5898 172.938 43.3585C171.686 43.1045 171.401 46.6379 170.453 50.5842C169.999 52.5709 167.5 54.5803 167.096 57.3019C166.765 59.5063 168.516 62.1825 168.23 64.7453C167.971 67.036 165.667 69.2404 165.445 71.7352C165.232 74.0802 167.105 76.6657 166.919 79.1151C166.733 81.5645 164.501 83.7735 164.347 86.1911C164.193 88.6088 166.121 91.1489 165.989 93.5348C165.858 95.9207 163.662 98.2975 163.549 100.656C163.431 103.146 165.395 105.646 165.3 107.973C165.195 110.535 163.032 112.885 162.95 115.126C162.85 117.847 164.846 120.351 164.787 122.42C164.651 126.915 162.596 125.985 162.519 129.6L163.077 129.623Z" fill="white"/>
<path d="M172.462 50.5479V128.616" stroke="#3A4646" stroke-miterlimit="10"/>
<path d="M175.873 58.7307L172.317 61.8015L169.405 57.9187" stroke="#3A4646" stroke-miterlimit="10"/>
<path d="M175.873 72.3202L172.317 75.3911L169.405 71.5083" stroke="#3A4646" stroke-miterlimit="10"/>
<path d="M175.873 85.098L172.317 88.1734L169.405 84.2906" stroke="#3A4646" stroke-miterlimit="10"/>
<path d="M175.873 100.307L172.317 103.378L169.405 99.495" stroke="#3A4646" stroke-miterlimit="10"/>
<path d="M175.873 115.675L172.317 118.745L169.405 114.863" stroke="#3A4646" stroke-miterlimit="10"/>
<path d="M15.7643 129.623H37.6274C37.2055 126.951 35.491 127.423 35.2596 123.272C35.1462 121.186 37.074 118.605 36.9107 115.865C36.7746 113.597 34.5475 111.293 34.3751 108.708C34.2164 106.376 36.1169 103.791 35.9355 101.278C35.7586 98.9054 33.5042 96.6239 33.3046 94.1563C33.1051 91.6888 34.9693 89.1351 34.7516 86.7038C34.5339 84.2726 32.2342 82.0273 31.9892 79.6278C31.7443 77.2283 33.5405 74.5067 33.2638 72.1435C32.9735 69.6397 30.6058 67.4715 30.2883 65.1627C29.9299 62.5909 31.6037 59.8466 31.1954 57.6286C30.7146 54.907 28.1836 52.9385 27.6484 50.9336C26.6913 47.2187 26.8137 43.5899 25.6435 43.3631C24.3916 43.1091 24.1058 46.6426 23.1578 50.5888C22.7042 52.5756 20.2049 54.585 19.7967 57.3065C19.4701 59.511 21.221 62.1872 20.9307 64.75C20.6767 67.0406 18.3724 69.2451 18.1456 71.7398C17.937 74.0849 19.8058 76.6704 19.6243 79.1198C19.4429 81.5691 17.2067 83.7781 17.0525 86.1958C16.8982 88.6134 18.826 91.1535 18.6945 93.5394C18.5629 95.9253 16.363 98.3022 16.2496 100.661C16.1317 103.151 18.1003 105.65 18.005 107.977C17.8961 110.54 15.737 112.89 15.6509 115.13C15.5556 117.852 17.5514 120.356 17.4652 122.424C17.3337 126.919 15.2744 125.989 15.1973 129.605L15.7643 129.623Z" fill="#C1CB9C"/>
<path opacity="0.5" d="M15.7643 129.623H37.6274C37.2055 126.951 35.491 127.423 35.2596 123.272C35.1462 121.186 37.074 118.605 36.9107 115.865C36.7746 113.597 34.5475 111.293 34.3751 108.708C34.2164 106.376 36.1169 103.791 35.9355 101.278C35.7586 98.9054 33.5042 96.6239 33.3046 94.1563C33.1051 91.6888 34.9693 89.1351 34.7516 86.7038C34.5339 84.2726 32.2342 82.0273 31.9892 79.6278C31.7443 77.2283 33.5405 74.5067 33.2638 72.1435C32.9735 69.6397 30.6058 67.4715 30.2883 65.1627C29.9299 62.5909 31.6037 59.8466 31.1954 57.6286C30.7146 54.907 28.1836 52.9385 27.6484 50.9336C26.6913 47.2187 26.8137 43.5899 25.6435 43.3631C24.3916 43.1091 24.1058 46.6426 23.1578 50.5888C22.7042 52.5756 20.2049 54.585 19.7967 57.3065C19.4701 59.511 21.221 62.1872 20.9307 64.75C20.6767 67.0406 18.3724 69.2451 18.1456 71.7398C17.937 74.0849 19.8058 76.6704 19.6243 79.1198C19.4429 81.5691 17.2067 83.7781 17.0525 86.1958C16.8982 88.6134 18.826 91.1535 18.6945 93.5394C18.5629 95.9253 16.363 98.3022 16.2496 100.661C16.1317 103.151 18.1003 105.65 18.005 107.977C17.8961 110.54 15.737 112.89 15.6509 115.13C15.5556 117.852 17.5514 120.356 17.4652 122.424C17.3337 126.919 15.2744 125.989 15.1973 129.605L15.7643 129.623Z" fill="white"/>
<path d="M25.1627 50.5479V128.616" stroke="#3A4646" stroke-miterlimit="10"/>
<path d="M28.5782 58.7307L25.0175 61.8015L22.1055 57.9187" stroke="#3A4646" stroke-miterlimit="10"/>
<path d="M28.5782 72.3202L25.0175 75.3911L22.1055 71.5083" stroke="#3A4646" stroke-miterlimit="10"/>
<path d="M28.5782 85.098L25.0175 88.1734L22.1055 84.2906" stroke="#3A4646" stroke-miterlimit="10"/>
<path d="M28.5782 100.307L25.0175 103.378L22.1055 99.495" stroke="#3A4646" stroke-miterlimit="10"/>
<path d="M28.5782 115.675L25.0175 118.745L22.1055 114.863" stroke="#3A4646" stroke-miterlimit="10"/>
<path d="M130.845 129.622H147.174C146.861 127.627 145.578 127.98 145.41 124.882C145.324 123.327 146.771 121.399 146.639 119.349C146.539 117.661 144.875 115.933 144.748 114.005C144.63 112.263 146.049 110.331 145.909 108.458C145.782 106.68 144.094 104.979 143.945 103.137C143.795 101.296 145.188 99.3815 145.038 97.5671C144.888 95.7527 143.155 94.079 142.974 92.2873C142.793 90.4956 144.131 88.459 143.927 86.6945C143.709 84.8212 141.94 83.2064 141.704 81.4827C141.436 79.5595 142.688 77.5093 142.393 75.8537C142.035 73.8216 140.125 72.3519 139.744 70.8642C138.991 68.0836 139.082 65.3621 138.234 65.1943C137.386 65.0264 137.086 67.6437 136.374 70.592C136.02 72.0753 134.17 73.5766 133.866 75.6087C133.621 77.2553 134.927 79.2375 134.714 81.1698C134.524 82.8798 132.8 84.5263 132.632 86.3906C132.473 88.1415 133.875 90.0738 133.734 91.9017C133.594 93.7297 131.92 95.3808 131.816 97.1861C131.711 98.9914 133.14 100.887 133.045 102.675C132.95 104.462 131.303 106.231 131.231 107.991C131.144 109.85 132.591 111.728 132.541 113.434C132.46 115.348 130.845 117.103 130.781 118.773C130.713 120.805 132.201 122.678 132.142 124.216C132.042 127.572 130.505 126.878 130.45 129.577L130.845 129.622Z" fill="#C1CB9C"/>
<path opacity="0.5" d="M130.845 129.622H147.174C146.861 127.627 145.578 127.98 145.41 124.882C145.324 123.327 146.771 121.399 146.639 119.349C146.539 117.661 144.875 115.933 144.748 114.005C144.63 112.263 146.049 110.331 145.909 108.458C145.782 106.68 144.094 104.979 143.945 103.137C143.795 101.296 145.188 99.3815 145.038 97.5671C144.888 95.7527 143.155 94.079 142.974 92.2873C142.793 90.4956 144.131 88.459 143.927 86.6945C143.709 84.8212 141.94 83.2064 141.704 81.4827C141.436 79.5595 142.688 77.5093 142.393 75.8537C142.035 73.8216 140.125 72.3519 139.744 70.8642C138.991 68.0836 139.082 65.3621 138.234 65.1943C137.386 65.0264 137.086 67.6437 136.374 70.592C136.02 72.0753 134.17 73.5766 133.866 75.6087C133.621 77.2553 134.927 79.2375 134.714 81.1698C134.524 82.8798 132.8 84.5263 132.632 86.3906C132.473 88.1415 133.875 90.0738 133.734 91.9017C133.594 93.7297 131.92 95.3808 131.816 97.1861C131.711 98.9914 133.14 100.887 133.045 102.675C132.95 104.462 131.303 106.231 131.231 107.991C131.144 109.85 132.591 111.728 132.541 113.434C132.46 115.348 130.845 117.103 130.781 118.773C130.713 120.805 132.201 122.678 132.142 124.216C132.042 127.572 130.505 126.878 130.45 129.577L130.845 129.622Z" fill="white"/>
<path d="M137.853 70.5604V128.87" stroke="#3A4646" stroke-miterlimit="10"/>
<path d="M140.402 76.6748L137.744 78.97L135.567 76.067" stroke="#3A4646" stroke-miterlimit="10"/>
<path d="M140.402 86.8217L137.744 89.1169L135.567 86.2184" stroke="#3A4646" stroke-miterlimit="10"/>
<path d="M140.402 96.3697L137.744 98.6649L135.567 95.7619" stroke="#3A4646" stroke-miterlimit="10"/>
<path d="M140.402 107.723L137.744 110.023L135.567 107.12" stroke="#3A4646" stroke-miterlimit="10"/>
<path d="M140.402 119.203L137.744 121.499L135.567 118.6" stroke="#3A4646" stroke-miterlimit="10"/>
<path d="M183.008 129.622H199.337C199.024 127.627 197.741 127.98 197.573 124.882C197.487 123.327 198.934 121.399 198.802 119.349C198.702 117.661 197.038 115.933 196.911 114.005C196.793 112.263 198.212 110.331 198.072 108.458C197.945 106.68 196.257 104.979 196.108 103.137C195.958 101.296 197.351 99.3815 197.201 97.5671C197.051 95.7527 195.319 94.079 195.137 92.2873C194.956 90.4956 196.294 88.459 196.09 86.6945C195.872 84.8212 194.103 83.2064 193.867 81.4827C193.599 79.5595 194.851 77.5093 194.556 75.8537C194.198 73.8216 192.288 72.3519 191.907 70.8642C191.155 68.0836 191.245 65.3621 190.397 65.1943C189.549 65.0264 189.249 67.6437 188.537 70.592C188.183 72.0753 186.333 73.5766 186.029 75.6087C185.784 77.2553 187.09 79.2375 186.877 81.1698C186.687 82.8798 184.963 84.5263 184.795 86.3906C184.636 88.1415 186.038 90.0738 185.897 91.9017C185.757 93.7297 184.083 95.3808 183.979 97.1861C183.874 98.9914 185.303 100.887 185.208 102.675C185.113 104.462 183.466 106.231 183.394 107.991C183.307 109.85 184.754 111.728 184.704 113.434C184.623 115.348 183.008 117.103 182.945 118.773C182.876 120.805 184.364 122.678 184.305 124.216C184.206 127.572 182.668 126.878 182.613 129.577L183.008 129.622Z" fill="#C1CB9C"/>
<path opacity="0.5" d="M183.008 129.622H199.337C199.024 127.627 197.741 127.98 197.573 124.882C197.487 123.327 198.934 121.399 198.802 119.349C198.702 117.661 197.038 115.933 196.911 114.005C196.793 112.263 198.212 110.331 198.072 108.458C197.945 106.68 196.257 104.979 196.108 103.137C195.958 101.296 197.351 99.3815 197.201 97.5671C197.051 95.7527 195.319 94.079 195.137 92.2873C194.956 90.4956 196.294 88.459 196.09 86.6945C195.872 84.8212 194.103 83.2064 193.867 81.4827C193.599 79.5595 194.851 77.5093 194.556 75.8537C194.198 73.8216 192.288 72.3519 191.907 70.8642C191.155 68.0836 191.245 65.3621 190.397 65.1943C189.549 65.0264 189.249 67.6437 188.537 70.592C188.183 72.0753 186.333 73.5766 186.029 75.6087C185.784 77.2553 187.09 79.2375 186.877 81.1698C186.687 82.8798 184.963 84.5263 184.795 86.3906C184.636 88.1415 186.038 90.0738 185.897 91.9017C185.757 93.7297 184.083 95.3808 183.979 97.1861C183.874 98.9914 185.303 100.887 185.208 102.675C185.113 104.462 183.466 106.231 183.394 107.991C183.307 109.85 184.754 111.728 184.704 113.434C184.623 115.348 183.008 117.103 182.945 118.773C182.876 120.805 184.364 122.678 184.305 124.216C184.206 127.572 182.668 126.878 182.613 129.577L183.008 129.622Z" fill="white"/>
<path d="M190.016 70.5604V128.87" stroke="#3A4646" stroke-miterlimit="10"/>
<path d="M192.565 76.6748L189.907 78.97L187.73 76.067" stroke="#3A4646" stroke-miterlimit="10"/>
<path d="M192.565 86.8217L189.907 89.1169L187.73 86.2184" stroke="#3A4646" stroke-miterlimit="10"/>
<path d="M192.565 96.3697L189.907 98.6649L187.73 95.7619" stroke="#3A4646" stroke-miterlimit="10"/>
<path d="M192.565 107.723L189.907 110.023L187.73 107.12" stroke="#3A4646" stroke-miterlimit="10"/>
<path d="M192.565 119.203L189.907 121.499L187.73 118.6" stroke="#3A4646" stroke-miterlimit="10"/>
<path d="M112.833 129.622H129.162C128.845 127.627 127.566 127.98 127.393 124.882C127.307 123.327 128.754 121.399 128.627 119.349C128.523 117.661 126.862 115.933 126.731 114.005C126.613 112.263 128.033 110.331 127.897 108.458C127.765 106.68 126.082 104.979 125.933 103.137C125.783 101.296 127.175 99.386 127.012 97.5671C126.849 95.7482 125.134 94.079 124.948 92.2873C124.762 90.4956 126.109 88.459 125.901 86.6945C125.683 84.8212 123.919 83.2064 123.678 81.4827C123.411 79.5595 124.663 77.5093 124.368 75.8537C124.009 73.8216 122.122 72.3519 121.723 70.8642C120.998 68.0836 121.084 65.3621 120.208 65.1943C119.333 65.0264 119.061 67.6437 118.353 70.592C117.995 72.0753 116.149 73.5766 115.845 75.6087C115.595 77.2553 116.906 79.2375 116.688 81.1698C116.498 82.8798 114.779 84.5263 114.611 86.3906C114.452 88.1415 115.849 90.0738 115.713 91.9017C115.577 93.7297 113.899 95.3808 113.79 97.1861C113.681 98.9914 115.119 100.887 115.019 102.675C114.919 104.462 113.277 106.231 113.205 107.991C113.114 109.85 114.566 111.728 114.511 113.434C114.434 115.348 112.815 117.103 112.756 118.773C112.683 120.805 114.175 122.678 114.117 124.216C114.017 127.572 112.484 126.878 112.429 129.577L112.833 129.622Z" fill="#C1CB9C"/>
<path opacity="0.5" d="M112.833 129.622H129.162C128.845 127.627 127.566 127.98 127.393 124.882C127.307 123.327 128.754 121.399 128.627 119.349C128.523 117.661 126.862 115.933 126.731 114.005C126.613 112.263 128.033 110.331 127.897 108.458C127.765 106.68 126.082 104.979 125.933 103.137C125.783 101.296 127.175 99.386 127.012 97.5671C126.849 95.7482 125.134 94.079 124.948 92.2873C124.762 90.4956 126.109 88.459 125.901 86.6945C125.683 84.8212 123.919 83.2064 123.678 81.4827C123.411 79.5595 124.663 77.5093 124.368 75.8537C124.009 73.8216 122.122 72.3519 121.723 70.8642C120.998 68.0836 121.084 65.3621 120.208 65.1943C119.333 65.0264 119.061 67.6437 118.353 70.592C117.995 72.0753 116.149 73.5766 115.845 75.6087C115.595 77.2553 116.906 79.2375 116.688 81.1698C116.498 82.8798 114.779 84.5263 114.611 86.3906C114.452 88.1415 115.849 90.0738 115.713 91.9017C115.577 93.7297 113.899 95.3808 113.79 97.1861C113.681 98.9914 115.119 100.887 115.019 102.675C114.919 104.462 113.277 106.231 113.205 107.991C113.114 109.85 114.566 111.728 114.511 113.434C114.434 115.348 112.815 117.103 112.756 118.773C112.683 120.805 114.175 122.678 114.117 124.216C114.017 127.572 112.484 126.878 112.429 129.577L112.833 129.622Z" fill="white"/>
<path d="M119.85 70.5604V128.87" stroke="#3A4646" stroke-miterlimit="10"/>
<path d="M122.399 76.6748L119.741 78.97L117.568 76.067" stroke="#3A4646" stroke-miterlimit="10"/>
<path d="M122.399 86.8217L119.741 89.1169L117.568 86.2184" stroke="#3A4646" stroke-miterlimit="10"/>
<path d="M122.399 96.3697L119.741 98.6649L117.568 95.7619" stroke="#3A4646" stroke-miterlimit="10"/>
<path d="M122.399 107.723L119.741 110.023L117.568 107.12" stroke="#3A4646" stroke-miterlimit="10"/>
<path d="M122.399 119.203L119.741 121.499L117.568 118.6" stroke="#3A4646" stroke-miterlimit="10"/>
<path d="M81.1268 129.622H97.4561C97.1431 127.627 95.8595 127.98 95.6916 124.882C95.6054 123.327 97.0524 121.399 96.9209 119.349C96.8211 117.661 95.1564 115.933 95.0294 114.005C94.9114 112.263 96.3312 110.331 96.1951 108.458C96.0636 106.68 94.3807 104.979 94.2265 103.137C94.0723 101.296 95.4739 99.386 95.3106 97.5671C95.1473 95.7482 93.4282 94.079 93.2468 92.2873C93.0653 90.4956 94.4034 88.459 94.1993 86.6945C93.9816 84.8212 92.2126 83.2064 91.9767 81.4828C91.7091 79.5595 92.961 77.5093 92.6662 75.8537C92.3078 73.8216 90.3982 72.352 90.0172 70.8642C89.2778 68.0746 89.3686 65.3803 88.4977 65.2079C87.5587 65.0219 87.3501 67.6573 86.6379 70.6056C86.2841 72.0889 84.4335 73.5903 84.1296 75.6223C83.8846 77.2689 85.191 79.2511 84.9778 81.1834C84.7873 82.8934 83.0636 84.54 82.8958 86.4042C82.737 88.1551 84.1386 90.0874 83.998 91.9154C83.8574 93.7433 82.1837 95.3944 82.0793 97.1997C81.975 99.005 83.4038 100.901 83.3086 102.688C83.2133 104.475 81.5668 106.244 81.4942 108.004C81.408 109.864 82.855 111.742 82.8051 113.447C82.7234 115.362 81.1087 117.117 81.0451 118.786C80.9771 120.818 82.4649 122.692 82.4059 124.229C82.3061 127.586 80.7685 126.892 80.714 129.591L81.1268 129.622Z" fill="#C1CB9C"/>
<path opacity="0.5" d="M81.1268 129.622H97.4561C97.1431 127.627 95.8595 127.98 95.6916 124.882C95.6054 123.327 97.0524 121.399 96.9209 119.349C96.8211 117.661 95.1564 115.933 95.0294 114.005C94.9114 112.263 96.3312 110.331 96.1951 108.458C96.0636 106.68 94.3807 104.979 94.2265 103.137C94.0723 101.296 95.4739 99.386 95.3106 97.5671C95.1473 95.7482 93.4282 94.079 93.2468 92.2873C93.0653 90.4956 94.4034 88.459 94.1993 86.6945C93.9816 84.8212 92.2126 83.2064 91.9767 81.4828C91.7091 79.5595 92.961 77.5093 92.6662 75.8537C92.3078 73.8216 90.3982 72.352 90.0172 70.8642C89.2778 68.0746 89.3686 65.3803 88.4977 65.2079C87.5587 65.0219 87.3501 67.6573 86.6379 70.6056C86.2841 72.0889 84.4335 73.5903 84.1296 75.6223C83.8846 77.2689 85.191 79.2511 84.9778 81.1834C84.7873 82.8934 83.0636 84.54 82.8958 86.4042C82.737 88.1551 84.1386 90.0874 83.998 91.9154C83.8574 93.7433 82.1837 95.3944 82.0793 97.1997C81.975 99.005 83.4038 100.901 83.3086 102.688C83.2133 104.475 81.5668 106.244 81.4942 108.004C81.408 109.864 82.855 111.742 82.8051 113.447C82.7234 115.362 81.1087 117.117 81.0451 118.786C80.9771 120.818 82.4649 122.692 82.4059 124.229C82.3061 127.586 80.7685 126.892 80.714 129.591L81.1268 129.622Z" fill="white"/>
<path d="M88.1348 70.5604V128.87" stroke="#3A4646" stroke-miterlimit="10"/>
<path d="M90.684 76.6748L88.0259 78.97L85.8487 76.067" stroke="#3A4646" stroke-miterlimit="10"/>
<path d="M90.684 86.8217L88.0259 89.1169L85.8487 86.2184" stroke="#3A4646" stroke-miterlimit="10"/>
<path d="M90.684 96.3697L88.0259 98.6649L85.8487 95.7619" stroke="#3A4646" stroke-miterlimit="10"/>
<path d="M90.684 107.723L88.0259 110.023L85.8487 107.12" stroke="#3A4646" stroke-miterlimit="10"/>
<path d="M90.684 119.203L88.0259 121.499L85.8487 118.6" stroke="#3A4646" stroke-miterlimit="10"/>
<path d="M41.2244 124.483H54.9319C54.6688 122.805 53.5938 123.123 53.4486 120.501C53.3761 119.195 54.5872 117.575 54.4828 115.856C54.3967 114.441 52.9996 112.989 52.8907 111.37C52.7955 109.905 53.9884 108.286 53.8705 106.712C53.7616 105.219 52.3464 103.791 52.2194 102.244C52.0924 100.697 53.2672 99.0959 53.1266 97.5718C52.986 96.0478 51.5526 94.6416 51.3984 93.1357C51.2442 91.6298 52.3691 89.9243 52.1967 88.441C52.0153 86.8716 50.5321 85.5108 50.3279 84.0639C50.1057 82.4536 51.158 80.73 50.9085 79.3374C50.6092 77.6319 49.0216 76.3982 48.6859 75.1417C48.0645 72.7967 48.1416 70.5378 47.4068 70.3926C46.672 70.2475 46.4452 72.4474 45.851 74.9285C45.5516 76.1714 44.0003 77.4324 43.7463 79.1379C43.5377 80.5213 44.6535 82.1996 44.4539 83.8053C44.2952 85.2432 42.8482 86.6267 42.7076 88.1915C42.5761 89.6612 43.7509 91.2805 43.6148 92.8182C43.4787 94.3559 42.0998 95.7348 42.0045 97.2543C41.9093 98.7738 43.1158 100.361 43.0342 101.858C42.9525 103.355 41.5736 104.847 41.501 106.326C41.4285 107.887 42.6622 109.465 42.5987 110.912C42.5352 112.518 41.1745 113.992 41.1246 115.398C41.0656 117.099 42.3175 118.673 42.2767 119.97C42.195 122.792 40.9159 122.206 40.8569 124.474L41.2244 124.483Z" fill="#C1CB9C"/>
<path opacity="0.5" d="M41.2244 124.483H54.9319C54.6688 122.805 53.5938 123.123 53.4486 120.501C53.3761 119.195 54.5872 117.575 54.4828 115.856C54.3967 114.441 52.9996 112.989 52.8907 111.37C52.7955 109.905 53.9884 108.286 53.8705 106.712C53.7616 105.219 52.3464 103.791 52.2194 102.244C52.0924 100.697 53.2672 99.0959 53.1266 97.5718C52.986 96.0478 51.5526 94.6416 51.3984 93.1357C51.2442 91.6298 52.3691 89.9243 52.1967 88.441C52.0153 86.8716 50.5321 85.5108 50.3279 84.0639C50.1057 82.4536 51.158 80.73 50.9085 79.3374C50.6092 77.6319 49.0216 76.3982 48.6859 75.1417C48.0645 72.7967 48.1416 70.5378 47.4068 70.3926C46.672 70.2475 46.4452 72.4474 45.851 74.9285C45.5516 76.1714 44.0003 77.4324 43.7463 79.1379C43.5377 80.5213 44.6535 82.1996 44.4539 83.8053C44.2952 85.2432 42.8482 86.6267 42.7076 88.1915C42.5761 89.6612 43.7509 91.2805 43.6148 92.8182C43.4787 94.3559 42.0998 95.7348 42.0045 97.2543C41.9093 98.7738 43.1158 100.361 43.0342 101.858C42.9525 103.355 41.5736 104.847 41.501 106.326C41.4285 107.887 42.6622 109.465 42.5987 110.912C42.5352 112.518 41.1745 113.992 41.1246 115.398C41.0656 117.099 42.3175 118.673 42.2767 119.97C42.195 122.792 40.9159 122.206 40.8569 124.474L41.2244 124.483Z" fill="white"/>
<path d="M47.1074 74.8966V123.848" stroke="#3A4646" stroke-miterlimit="10"/>
<path d="M49.2484 80.0269L47.0167 81.9547L45.1933 79.5189" stroke="#3A4646" stroke-miterlimit="10"/>
<path d="M49.2484 88.5498L47.0167 90.4776L45.1933 88.0418" stroke="#3A4646" stroke-miterlimit="10"/>
<path d="M49.2484 96.5603L47.0167 98.488L45.1933 96.0568" stroke="#3A4646" stroke-miterlimit="10"/>
<path d="M49.2484 106.099L47.0167 108.022L45.1933 105.591" stroke="#3A4646" stroke-miterlimit="10"/>
<path d="M49.2484 115.734L47.0167 117.661L45.1933 115.226" stroke="#3A4646" stroke-miterlimit="10"/>
<path d="M61.9898 129.623H82.0204C81.6349 127.173 80.0609 127.604 79.8522 123.807C79.7479 121.898 81.5169 119.53 81.3672 117.004C81.2402 114.931 79.1991 112.812 79.0403 110.445C78.8997 108.308 80.637 105.94 80.4691 103.641C80.3104 101.464 78.242 99.377 78.0606 97.1136C77.8791 94.8502 79.5846 92.5142 79.385 90.2825C79.1855 88.0508 77.0808 86.0051 76.854 83.8052C76.6272 81.6053 78.2783 79.1105 78.0243 76.9469C77.7566 74.6472 75.5885 72.665 75.3027 70.5513C74.9761 68.1926 76.5138 65.6751 76.1509 63.6431C75.6973 61.1528 73.3931 59.3475 72.9032 57.5105C71.996 54.0859 72.1094 50.7837 71.0344 50.566C69.8914 50.3392 69.6283 53.5733 68.7665 57.193C68.3129 59.0074 66.0449 60.8489 65.6911 63.3437C65.3872 65.3622 66.9929 67.8206 66.7298 70.1476C66.494 72.2477 64.3802 74.2662 64.1761 76.5523C63.9811 78.7023 65.6956 81.0882 65.5369 83.3153C65.3781 85.5425 63.3234 87.5836 63.1827 89.7971C63.0421 92.0107 64.8111 94.3331 64.6887 96.5284C64.5662 98.7238 62.5523 100.892 62.4479 103.051C62.3391 105.319 64.1444 107.641 64.0536 109.76C63.9584 112.105 61.9717 114.259 61.8991 116.31C61.8129 118.8 63.6409 121.1 63.5819 122.996C63.4594 127.114 61.577 126.261 61.509 129.573L61.9898 129.623Z" fill="#C1CB9C"/>
<path opacity="0.5" d="M61.9898 129.623H82.0204C81.6349 127.173 80.0609 127.604 79.8522 123.807C79.7479 121.898 81.5169 119.53 81.3672 117.004C81.2402 114.931 79.1991 112.812 79.0403 110.445C78.8997 108.308 80.637 105.94 80.4691 103.641C80.3104 101.464 78.242 99.377 78.0606 97.1136C77.8791 94.8502 79.5846 92.5142 79.385 90.2825C79.1855 88.0508 77.0808 86.0051 76.854 83.8052C76.6272 81.6053 78.2783 79.1105 78.0243 76.9469C77.7566 74.6472 75.5885 72.665 75.3027 70.5513C74.9761 68.1926 76.5138 65.6751 76.1509 63.6431C75.6973 61.1528 73.3931 59.3475 72.9032 57.5105C71.996 54.0859 72.1094 50.7837 71.0344 50.566C69.8914 50.3392 69.6283 53.5733 68.7665 57.193C68.3129 59.0074 66.0449 60.8489 65.6911 63.3437C65.3872 65.3622 66.9929 67.8206 66.7298 70.1476C66.494 72.2477 64.3802 74.2662 64.1761 76.5523C63.9811 78.7023 65.6956 81.0882 65.5369 83.3153C65.3781 85.5425 63.3234 87.5836 63.1827 89.7971C63.0421 92.0107 64.8111 94.3331 64.6887 96.5284C64.5662 98.7238 62.5523 100.892 62.4479 103.051C62.3391 105.319 64.1444 107.641 64.0536 109.76C63.9584 112.105 61.9717 114.259 61.8991 116.31C61.8129 118.8 63.6409 121.1 63.5819 122.996C63.4594 127.114 61.577 126.261 61.509 129.573L61.9898 129.623Z" fill="white"/>
<path d="M70.5899 57.1658V128.702" stroke="#3A4646" stroke-miterlimit="10"/>
<path d="M73.7151 64.6636L70.4538 67.4804L67.7867 63.9242" stroke="#3A4646" stroke-miterlimit="10"/>
<path d="M73.7151 77.1148L70.4538 79.9316L67.7867 76.3754" stroke="#3A4646" stroke-miterlimit="10"/>
<path d="M73.7151 88.8266L70.4538 91.6434L67.7867 88.0827" stroke="#3A4646" stroke-miterlimit="10"/>
<path d="M73.7151 102.761L70.4538 105.573L67.7867 102.017" stroke="#3A4646" stroke-miterlimit="10"/>
<path d="M73.7151 116.84L70.4538 119.657L67.7867 116.101" stroke="#3A4646" stroke-miterlimit="10"/>
<path d="M201.256 123.898L197.854 122.515L194.448 123.898L191.046 122.515L187.639 123.898L184.237 122.515L180.835 123.898L177.429 122.515L174.027 123.898L170.62 122.515L167.218 123.898L163.817 122.515L160.41 123.898L157.008 122.515L153.606 123.898L150.2 122.515L146.798 123.898L143.391 122.515L139.989 123.898L136.587 122.515L133.181 123.898L129.779 122.515L126.373 123.898L122.971 122.515L119.569 123.898L116.162 122.515L112.76 123.898L109.358 122.515L105.952 123.898L102.55 122.515L99.148 123.898L95.7415 122.515L92.3396 123.898L88.9377 122.515L85.5357 123.898L82.1292 122.515L78.7273 123.898L75.3254 122.515L71.9234 123.898L68.5215 122.515L65.115 123.898L61.7131 122.515L58.3111 123.898L54.9092 122.515L51.5073 123.898L48.1053 122.515L44.7034 123.898L41.2969 122.515L37.895 123.898L34.493 122.515L31.0911 123.898L27.6892 122.515L24.2872 123.898L20.8853 122.515L17.4834 123.898L14.0814 122.515L10.6795 123.898L7.27755 122.515L4.42446 123.676V129.627H201.737V123.703L201.256 123.898Z" fill="#C1CB9C"/>
<path d="M136.42 33.1843C134.333 33.1845 132.308 33.893 130.677 35.1937C130.272 32.6951 129.146 30.369 127.438 28.5011C125.73 26.6332 123.513 25.3046 121.061 24.6784C118.608 24.0523 116.026 24.1558 113.631 24.9762C111.237 25.7967 109.134 27.2984 107.58 29.297C106.006 27.2097 103.855 25.6294 101.392 24.7511C98.9296 23.8729 96.2638 23.7353 93.7239 24.3553C91.1841 24.9753 88.8815 26.3257 87.1006 28.2398C85.3197 30.1539 84.1386 32.5478 83.7031 35.1257C82.0655 34.7234 80.3481 34.7856 78.7439 35.3052C77.1396 35.8248 75.7119 36.7813 74.621 38.0673C73.5302 39.3532 72.8194 40.9178 72.5684 42.5853C72.3174 44.2529 72.5361 45.9574 73.2001 47.5075C73.864 49.0576 74.9469 50.392 76.3271 51.3608C77.7074 52.3297 79.3303 52.8946 81.0138 52.9923C82.6973 53.0899 84.3747 52.7164 85.8577 51.9136C87.3407 51.1109 88.5706 49.9106 89.4093 48.4477C92.2646 50.3717 95.7513 51.1218 99.1452 50.5424C102.539 49.9629 105.579 48.0984 107.635 45.336C108.797 46.8086 110.265 48.0121 111.936 48.8639C113.608 49.7156 115.444 50.1955 117.319 50.2705C119.193 50.3455 121.062 50.0138 122.796 49.2983C124.531 48.5827 126.089 47.5003 127.366 46.1253C127.94 48.0931 129.132 49.8241 130.766 51.0624C132.399 52.3007 134.388 52.9806 136.438 53.0017C141.69 53.0017 145.963 48.5701 145.963 43.0998C145.963 37.6295 141.672 33.1843 136.42 33.1843Z" fill="#3A4646" stroke="#3A4646" stroke-linecap="round" stroke-linejoin="round"/>
<path d="M89.4093 49.1144C89.2765 49.1147 89.1466 49.0757 89.036 49.0022C88.9254 48.9288 88.839 48.8241 88.7879 48.7016L83.0772 35.3841C83.0056 35.2181 83.0029 35.0305 83.0697 34.8625C83.1365 34.6945 83.2672 34.5599 83.4333 34.4883C83.5993 34.4167 83.7869 34.414 83.9549 34.4808C84.1229 34.5476 84.2575 34.6784 84.3291 34.8444L90.0353 48.1664C90.0727 48.249 90.0933 48.3383 90.0957 48.429C90.0982 48.5197 90.0824 48.6099 90.0495 48.6945C90.0165 48.779 89.967 48.8561 89.9038 48.9212C89.8406 48.9863 89.765 49.0381 89.6815 49.0735C89.5942 49.1043 89.5018 49.1181 89.4093 49.1144Z" fill="white" stroke="#3A4646" stroke-miterlimit="10"/>
<path d="M107.635 46.2297C107.394 46.2297 107.163 46.1342 106.993 45.964C106.823 45.7939 106.727 45.5632 106.727 45.3226L106.673 29.279C106.673 29.0384 106.769 28.8077 106.939 28.6375C107.109 28.4674 107.34 28.3718 107.58 28.3718C107.821 28.3718 108.052 28.4674 108.222 28.6375C108.392 28.8077 108.487 29.0384 108.487 29.279L108.542 45.318C108.542 45.5586 108.446 45.7894 108.276 45.9595C108.106 46.1296 107.875 46.2252 107.635 46.2252V46.2297Z" fill="white" stroke="#3A4646" stroke-miterlimit="10"/>
<path d="M127.348 47.0188C127.257 47.0179 127.167 47.0058 127.08 46.9825C126.966 46.9478 126.86 46.8909 126.768 46.8151C126.675 46.7393 126.599 46.646 126.543 46.5407C126.487 46.4354 126.452 46.32 126.441 46.2013C126.43 46.0825 126.442 45.9626 126.477 45.8486L129.788 34.9306C129.858 34.7002 130.016 34.507 130.228 34.3935C130.441 34.2799 130.689 34.2553 130.92 34.3251C131.15 34.3948 131.343 34.5533 131.457 34.7655C131.57 34.9778 131.595 35.2264 131.525 35.4568L128.255 46.3747C128.197 46.5676 128.076 46.7356 127.912 46.8522C127.747 46.9688 127.549 47.0274 127.348 47.0188Z" fill="white" stroke="#3A4646" stroke-miterlimit="10"/>
<path d="M131.539 38.7181C131.539 38.7181 142.23 34.3047 145.02 34.3047C147.809 34.3047 146.185 35.2346 145.02 36.3957C143.854 37.5569 143.278 38.8361 143.858 40.1152L131.539 38.7181Z" fill="#C1CB9C" stroke="#3A4646" stroke-linecap="round" stroke-linejoin="round"/>
<path d="M67.9635 42.0928C67.9635 42.0928 95.2743 36.0464 149.088 42.0928C149.088 42.0928 150.018 41.7435 149.438 41.2763C148.857 40.8091 125.96 36.7404 104.46 36.9763C82.9593 37.2121 68.5441 39.0537 67.9635 42.0928Z" fill="#C1CB9C" stroke="#3A4646" stroke-linecap="round" stroke-linejoin="round"/>
<path d="M124.912 28.6076H94.6982C93.606 28.6076 92.7205 29.493 92.7205 30.5852V38.2509C92.7205 39.3432 93.606 40.2286 94.6982 40.2286H124.912C126.004 40.2286 126.89 39.3432 126.89 38.2509V30.5852C126.89 29.493 126.004 28.6076 124.912 28.6076Z" fill="#C1CB9C" stroke="#3A4646" stroke-linecap="round" stroke-linejoin="round"/>
<path d="M125.293 28.6213H94.3172C93.8715 28.6436 93.4529 28.842 93.1535 29.1729C92.8541 29.5038 92.6983 29.94 92.7206 30.3857V32.0459H126.894V30.3857C126.905 30.1647 126.872 29.9436 126.798 29.7353C126.723 29.5269 126.608 29.3352 126.46 29.1713C126.311 29.0074 126.131 28.8745 125.931 28.7801C125.731 28.6857 125.514 28.6317 125.293 28.6213Z" fill="white" stroke="#3A4646" stroke-linecap="round" stroke-linejoin="round"/>
<path d="M128.981 39.7661H90.6295C89.5373 39.7661 88.6518 40.6515 88.6518 41.7437V50.8065C88.6518 51.8987 89.5373 52.7841 90.6295 52.7841H128.981C130.073 52.7841 130.958 51.8987 130.958 50.8065V41.7437C130.958 40.6515 130.073 39.7661 128.981 39.7661Z" fill="#C1CB9C" stroke="#3A4646" stroke-linecap="round" stroke-linejoin="round"/>
<path d="M128.981 39.7659H90.6068C90.0831 39.7671 89.5812 39.976 89.2113 40.3467C88.8414 40.7175 88.6337 41.2198 88.6337 41.7435V43.5897H130.976V41.7299C130.975 41.4698 130.922 41.2127 130.82 40.9731C130.719 40.7335 130.571 40.5163 130.386 40.3339C130.201 40.1514 129.981 40.0074 129.74 39.9099C129.499 39.8124 129.241 39.7635 128.981 39.7659Z" fill="white" stroke="#3A4646" stroke-linecap="round" stroke-linejoin="round"/>
<path d="M103.879 44.8779H105.621V45.5764C105.621 46.3776 105.939 47.146 106.505 47.7125C107.072 48.279 107.84 48.5973 108.642 48.5973H111.318C112.119 48.5973 112.887 48.279 113.454 47.7125C114.02 47.146 114.339 46.3776 114.339 45.5764V44.7645H115.963" stroke="#3A4646" stroke-width="3" stroke-linecap="round" stroke-linejoin="round"/>
<path d="M131.43 52.2079H87.663C85.7588 52.2068 83.9192 52.8984 82.4875 54.1538C81.5624 54.9625 80.8399 55.977 80.3783 57.1158L70.5082 81.4691C70.1794 82.2817 69.655 83.0004 68.9816 83.5614C68.3082 84.1225 67.5066 84.5085 66.6481 84.6851L55.0906 87.0529C52.8957 87.5007 50.8379 88.4612 49.085 89.856C46.4157 91.9925 44.6069 95.0204 43.9912 98.3836L42.5805 106.095C42.4224 106.966 42.4604 107.862 42.6919 108.718C42.9233 109.573 43.3424 110.366 43.9186 111.039C44.4795 111.692 45.1755 112.217 45.9586 112.575C46.7417 112.934 47.5932 113.119 48.4545 113.116H61.7402L72.1728 119.467H123.429L151.706 115.384L157.893 114.931C158.617 114.882 159.318 114.653 159.931 114.263C160.544 113.873 161.048 113.335 161.399 112.699C162.273 111.158 162.783 109.437 162.891 107.669C163.045 103.74 161.984 99.8078 160.02 96.0294C158.056 92.251 155.18 91.7929 151.402 79.2465C147.623 66.7002 145.945 60.9759 142.167 56.7439C138.388 52.5118 131.43 52.2079 131.43 52.2079Z" fill="#C1CB9C" stroke="#3A4646" stroke-linecap="round" stroke-linejoin="round"/>
<path d="M72.767 88.7992V114.2C72.767 115.082 73.1173 115.928 73.7409 116.551C74.3644 117.175 75.2101 117.525 76.0919 117.525H116.008C116.628 117.525 117.24 117.394 117.806 117.14C118.371 116.885 118.876 116.514 119.287 116.051C120.003 115.248 120.399 114.21 120.399 113.134V90.0012" stroke="#3A4646" stroke-linecap="round" stroke-linejoin="round"/>
<path d="M55.907 92.3508H151.615" stroke="#3A4646" stroke-linecap="round" stroke-linejoin="round"/>
<path d="M118.426 94.2422H113.59C113.35 94.2422 113.119 94.1467 112.949 93.9765C112.779 93.8064 112.683 93.5757 112.683 93.3351C112.683 93.0945 112.779 92.8637 112.949 92.6936C113.119 92.5235 113.35 92.4279 113.59 92.4279H118.426C118.666 92.4279 118.897 92.5235 119.067 92.6936C119.237 92.8637 119.333 93.0945 119.333 93.3351C119.333 93.4542 119.309 93.5722 119.264 93.6822C119.218 93.7923 119.151 93.8923 119.067 93.9765C118.983 94.0608 118.883 94.1276 118.773 94.1732C118.663 94.2188 118.545 94.2422 118.426 94.2422Z" fill="#3A4646" stroke="#3A4646" stroke-linecap="round" stroke-linejoin="round"/>
<path d="M93.3283 54.4759H91.8769C89.4672 54.4769 87.1162 55.2196 85.1434 56.6033C83.1706 57.9869 81.6716 59.9444 80.85 62.2097L72.3588 85.6694C72.2686 85.9199 72.24 86.1885 72.2753 86.4524C72.3107 86.7163 72.409 86.9678 72.562 87.1858C72.715 87.4037 72.9182 87.5816 73.1544 87.7045C73.3906 87.8275 73.6529 87.8918 73.9192 87.892H116.915C117.293 87.892 117.666 87.8176 118.015 87.673C118.364 87.5284 118.68 87.3165 118.947 87.0494C119.214 86.7823 119.425 86.4653 119.569 86.1164C119.713 85.7675 119.787 85.3937 119.786 85.0162V58.1818C119.787 57.6953 119.692 57.2135 119.506 56.7639C119.32 56.3144 119.048 55.9058 118.704 55.5616C118.36 55.2174 117.952 54.9444 117.503 54.7581C117.053 54.5718 116.571 54.4759 116.085 54.4759H93.3283Z" fill="#263238"/>
<path d="M115.554 72.0752C115.554 72.0752 119.945 75.6268 121.093 78.2395C122.24 80.8522 123.814 88.2684 123.814 88.2684H97.1793C97.1793 88.2684 104.283 80.1038 107.208 77.5092C110.134 74.9147 115.554 72.0752 115.554 72.0752Z" fill="white"/>
<path d="M113.64 79.2057C114.207 78.6387 115.337 78.8655 115.337 80.6754C115.37 81.1507 115.227 81.6218 114.935 81.9984C114.643 82.3749 114.222 82.6306 113.754 82.7165C114.408 82.7284 115.058 82.8432 115.677 83.0567C116.584 83.3969 116.244 85.3247 114.316 85.7783C112.388 86.2318 112.161 83.3969 112.161 83.3969C111.89 83.7869 111.662 84.2052 111.481 84.6443C111.141 85.4381 107.966 86.0051 108.193 84.0773C108.419 82.1495 111.141 82.3763 110.687 82.1495C110.234 81.9227 107.399 79.3191 109.78 78.5208C112.161 77.7225 112.275 81.6959 112.275 81.6959C112.275 81.6959 113.073 79.7727 113.64 79.2057ZM120.326 76.9377C120.326 76.9377 120.213 72.9688 117.831 73.7626C115.45 74.5564 118.285 77.1645 118.739 77.3913C119.192 77.6181 116.471 77.3913 116.244 79.3191C116.017 81.2469 119.192 80.6799 119.532 79.8861C119.713 79.447 119.942 79.0287 120.213 78.6387C120.213 78.6387 120.439 81.4691 122.367 81.0155C124.295 80.562 124.635 78.6387 123.728 78.294C123.109 78.0808 122.46 77.966 121.805 77.9538C122.274 77.8679 122.694 77.6122 122.986 77.2357C123.278 76.8591 123.421 76.388 123.388 75.9126C123.388 74.0983 122.258 73.8715 121.691 74.4385C121.124 75.0055 120.326 76.9377 120.326 76.9377ZM120.553 86.4632C120.553 86.4632 120.439 82.4942 118.058 83.288C115.677 84.0818 118.512 86.69 118.965 86.9168C119.419 87.1436 116.697 86.9168 116.471 88.84C116.244 90.7632 119.419 90.2008 119.759 89.407C119.939 88.9689 120.168 88.5521 120.439 88.1641C120.439 88.1641 120.666 90.9946 122.594 90.541C124.522 90.0874 124.862 88.1641 123.955 87.8194C123.335 87.6062 122.687 87.4914 122.032 87.4792C122.5 87.3933 122.921 87.1377 123.213 86.7611C123.505 86.3845 123.648 85.9135 123.615 85.4381C123.615 83.6237 122.485 83.3969 121.918 83.9639C121.351 84.5309 120.544 86.4586 120.544 86.4586L120.553 86.4632ZM104.119 86.69C104.119 86.69 104.006 82.721 101.625 83.5148C99.2431 84.3086 102.078 86.9168 102.532 87.1436C102.985 87.3704 100.264 87.1436 100.037 89.0668C99.8101 90.99 102.985 90.4276 103.325 89.6338C103.506 89.1957 103.734 88.7789 104.006 88.3909C104.006 88.3909 104.233 91.2214 106.16 90.7678C108.088 90.3142 108.428 88.3909 107.521 88.0462C106.902 87.8327 106.253 87.7179 105.598 87.706C106.067 87.6201 106.487 87.3645 106.779 86.9879C107.072 86.6113 107.214 86.1402 107.181 85.6649C107.181 83.8505 106.052 83.6237 105.485 84.1907C104.918 84.7577 104.119 86.6809 104.119 86.6809V86.69ZM112.284 73.427C112.284 73.427 112.171 69.4626 109.789 70.2518C107.408 71.0411 110.243 73.6492 110.696 73.8805C111.15 74.1119 108.428 73.8805 108.202 75.8083C107.975 77.7361 111.15 77.1691 111.49 76.3753C111.671 75.9362 111.899 75.5179 112.171 75.1279C112.171 75.1279 112.397 77.9629 114.325 77.5093C116.253 77.0557 116.593 75.1279 115.686 74.7877C115.06 74.5672 114.403 74.4478 113.74 74.4339C114.208 74.3481 114.628 74.0931 114.92 73.7175C115.212 73.3419 115.355 72.8719 115.323 72.3973C115.323 70.5829 114.194 70.3561 113.627 70.9231C113.06 71.4901 112.279 73.4224 112.279 73.4224L112.284 73.427Z" fill="#C1CB9C"/>
<path d="M115.554 72.0752C115.554 72.0752 119.945 75.6268 121.093 78.2395C122.24 80.8522 123.814 88.2684 123.814 88.2684H97.1793C97.1793 88.2684 104.283 80.1038 107.208 77.5092C110.134 74.9147 115.554 72.0752 115.554 72.0752Z" stroke="#3A4646" stroke-linecap="round" stroke-linejoin="round"/>
<path d="M97.1793 88.2685H110.193C110.084 85.6467 109.712 80.2943 108.46 78.9699C107.743 78.2033 106.519 78.6024 105.358 79.3055C102.024 82.712 97.1793 88.2685 97.1793 88.2685Z" stroke="#3A4646" stroke-linecap="round" stroke-linejoin="round"/>
<path d="M102.087 58.599C102.087 58.599 100.001 61.1074 100.001 61.629C100.033 62.2795 99.8085 62.9167 99.3747 63.4025C98.8486 63.9287 97.2837 65.4936 97.2837 66.3282C97.2837 67.1628 98.9529 66.9542 98.9529 66.9542C98.9529 66.9542 96.8664 69.6757 97.4923 70.6101C98.1183 71.5445 105.956 78.3438 105.956 78.3438L115.028 71.1363L114.402 69.7755C114.864 69.0802 115.183 68.3 115.341 67.4803C115.445 66.4325 116.18 62.5679 112.62 60.0596C109.059 57.5512 103.657 57.2428 102.087 58.599Z" fill="white" stroke="#3A4646" stroke-linecap="round" stroke-linejoin="round"/>
<path d="M114.416 69.7754C114.878 69.0801 115.197 68.2999 115.355 67.4802C115.459 66.4324 116.194 62.5678 112.633 60.0595C110.895 58.8936 108.905 58.1567 106.827 57.9094C107.607 58.363 109.095 59.3428 109.186 60.2681C109.29 61.5246 107.934 61.6289 107.934 61.6289C107.934 61.6289 105.426 62.6722 105.739 63.1938C106.052 63.7154 107.412 64.6589 107.412 64.9719C107.412 65.2849 106.578 66.5368 107.308 66.7454C108.038 66.9541 108.456 65.1805 109.503 65.3846C110.551 65.5887 110.964 65.489 110.651 67.1582C110.338 68.8274 109.399 69.2492 109.399 69.5622C109.399 69.8752 112.574 70.4422 114.552 70.0702L114.416 69.7754Z" fill="#3A4646" stroke="#3A4646" stroke-linecap="round" stroke-linejoin="round"/>
<path d="M102.718 58.0773C102.718 58.0773 110.03 51.3914 110.969 51.3914C111.907 51.3914 117.863 54.8387 118.072 56.1949C118.28 57.5511 116.611 66.7454 116.611 66.7454L102.718 58.0773Z" fill="white" stroke="#3A4646" stroke-linecap="round" stroke-linejoin="round"/>
<path d="M102.718 58.0772L116.611 66.7454C116.611 66.7454 116.933 64.9764 117.273 62.8762L105.054 55.9816C103.734 57.1474 102.718 58.0772 102.718 58.0772Z" fill="#3A4646" stroke="#3A4646" stroke-linecap="round" stroke-linejoin="round"/>
<path d="M97.7009 56.508C97.7009 56.508 118.802 72.3837 119.115 71.1363C119.428 69.8889 118.906 68.002 117.446 66.2239C115.985 64.4458 107.92 59.3293 104.178 57.6601C100.436 55.9909 97.9096 55.2561 97.7009 56.508Z" fill="white" stroke="#3A4646" stroke-linecap="round" stroke-linejoin="round"/>
<path d="M101.947 63.1349C101.688 64.1101 101.135 64.8132 100.717 64.6998C100.3 64.5864 100.173 63.7064 100.436 62.7312C100.699 61.756 101.248 61.0575 101.665 61.1663C102.083 61.2752 102.219 62.1869 101.947 63.1349Z" stroke="#3A4646" stroke-linecap="round" stroke-linejoin="round"/>
<path d="M101.956 63.1348L108.46 65.7021" stroke="#3A4646" stroke-linecap="round" stroke-linejoin="round"/>
<path d="M98.7442 67.5847C99.3342 67.7509 99.9587 67.7507 100.549 67.5842C101.139 67.4177 101.671 67.0914 102.087 66.6412" stroke="#3A4646" stroke-linecap="round" stroke-linejoin="round"/>
<path d="M101.774 66.0152L102.718 67.2671" stroke="#3A4646" stroke-linecap="round" stroke-linejoin="round"/>
<path d="M103.534 76.7018L103.824 81.088L115.944 72.1069L114.937 70.0884L103.534 76.7018Z" fill="white" stroke="#3A4646" stroke-linecap="round" stroke-linejoin="round"/>
<path d="M87.1322 88.5723L85.023 89.1665L81.925 78.1533C81.885 78.0139 81.873 77.868 81.8897 77.724C81.9064 77.5799 81.9515 77.4406 82.0223 77.3141C82.0932 77.1875 82.1884 77.0763 82.3025 76.9868C82.4166 76.8973 82.5473 76.8313 82.687 76.7925C82.8261 76.7524 82.9718 76.7402 83.1156 76.7567C83.2594 76.7731 83.3986 76.8178 83.525 76.8882C83.6515 76.9586 83.7628 77.0533 83.8525 77.1669C83.9423 77.2805 84.0086 77.4107 84.0478 77.55L87.1322 88.5723Z" fill="#3A4646" stroke="#3A4646" stroke-linecap="round" stroke-linejoin="round"/>
<path d="M89.7767 82.8524C89.7767 82.8524 86.7966 78.8381 85.9348 77.6361C85.073 76.4341 84.2111 76.4885 83.6396 76.8332C83.0681 77.178 80.3692 79.2962 80.5416 79.9857C80.7139 80.6751 82.2063 84.068 82.433 84.5216C82.5444 84.7677 82.7215 84.9783 82.9447 85.1303C83.168 85.2824 83.4288 85.37 83.6986 85.3834C84.2701 85.3834 84.7872 84.1769 84.7872 84.1769H85.6944C85.6944 84.1769 86.7875 86.531 87.9895 87.0481C88.8119 87.3598 89.6954 87.4763 90.5705 87.3883L91.6591 88.8806H96.4218L89.7767 82.8524Z" fill="white" stroke="#3A4646" stroke-linecap="round" stroke-linejoin="round"/>
<path d="M82.7778 84.9208C82.6545 84.7694 82.5781 84.5854 82.5579 84.3912C82.5378 84.197 82.5748 84.0011 82.6644 83.8277C82.9502 83.1427 83.8709 81.7638 84.0977 81.7638C84.3245 81.7638 86.3339 81.6504 86.3339 81.6504" stroke="#3A4646" stroke-linecap="round" stroke-linejoin="round"/>
<path d="M81.9205 82.8525C81.9205 82.8525 82.9501 80.6163 83.4672 80.3895C83.9843 80.1627 86.1072 80.1582 86.1072 80.1582" stroke="#3A4646" stroke-linecap="round" stroke-linejoin="round"/>
<path d="M81.1721 81.3059C81.1721 81.3059 82.4331 78.8973 83.1815 78.7839C83.8862 78.7036 84.595 78.6642 85.3043 78.666" stroke="#3A4646" stroke-linecap="round" stroke-linejoin="round"/>
<path d="M93.3283 54.4759H91.8769C89.4672 54.4769 87.1162 55.2196 85.1434 56.6033C83.1706 57.9869 81.6716 59.9444 80.85 62.2097L72.3588 85.6694C72.2686 85.9199 72.24 86.1885 72.2753 86.4524C72.3107 86.7163 72.409 86.9678 72.562 87.1858C72.715 87.4037 72.9182 87.5816 73.1544 87.7045C73.3906 87.8275 73.6529 87.8918 73.9192 87.892H116.915C117.293 87.892 117.666 87.8176 118.015 87.673C118.364 87.5284 118.68 87.3165 118.947 87.0494C119.214 86.7823 119.425 86.4653 119.569 86.1164C119.713 85.7675 119.787 85.3937 119.786 85.0162V58.1818C119.787 57.6953 119.692 57.2135 119.506 56.7639C119.32 56.3144 119.048 55.9058 118.704 55.5616C118.36 55.2174 117.952 54.9444 117.503 54.7581C117.053 54.5718 116.571 54.4759 116.085 54.4759H93.3283Z" stroke="#3A4646" stroke-linecap="round" stroke-linejoin="round"/>
<path d="M124.023 57.379V85.6241C124.023 86.2653 124.278 86.8803 124.731 87.3337C125.184 87.7871 125.799 88.0418 126.441 88.0418H149.574L142.77 64.9086C142.072 62.5319 140.732 60.394 138.896 58.7307C136.512 56.5674 133.432 55.3299 130.214 55.2426L126.314 55.1382C126.015 55.1316 125.718 55.1846 125.441 55.2943C125.163 55.4039 124.91 55.5679 124.697 55.7766C124.483 55.9854 124.314 56.2346 124.198 56.5098C124.082 56.785 124.023 57.0805 124.023 57.379Z" fill="#263238"/>
<path d="M142.992 65.6434L124.948 87.5156C125.373 87.8535 125.898 88.0388 126.441 88.0418H134.877L145.823 75.2732L142.992 65.6434Z" fill="white"/>
<path d="M148.499 84.3814L147.061 79.4871L140.198 88.0418H145.265L148.499 84.3814Z" fill="white"/>
<path d="M124.023 57.379V85.6241C124.023 86.2653 124.278 86.8803 124.731 87.3337C125.184 87.7871 125.799 88.0418 126.441 88.0418H149.574L142.77 64.9086C142.072 62.5319 140.732 60.394 138.896 58.7307V58.7307C136.512 56.5674 133.432 55.3299 130.214 55.2426L126.314 55.1382C126.015 55.1316 125.718 55.1846 125.441 55.2943C125.163 55.4039 124.91 55.5679 124.697 55.7766C124.483 55.9854 124.314 56.2346 124.198 56.5098C124.082 56.785 124.023 57.0805 124.023 57.379V57.379Z" stroke="#3A4646" stroke-linecap="round" stroke-linejoin="round"/>
<path d="M88.3388 55.0247C86.6227 55.567 85.0546 56.4971 83.7559 57.7431C82.4572 58.9891 81.4629 60.5174 80.85 62.2096L72.3588 85.6693C72.2686 85.9199 72.24 86.1884 72.2753 86.4523C72.3107 86.7162 72.409 86.9678 72.562 87.1857C72.715 87.4036 72.9182 87.5816 73.1544 87.7045C73.3906 87.8274 73.6529 87.8917 73.9192 87.892H88.3388V55.0247Z" stroke="#3A4646" stroke-linecap="round" stroke-linejoin="round"/>
<path d="M42.5805 106.117C42.5805 106.117 41.0156 107.242 41.0156 108.603C41.0156 109.964 41.9228 111.778 42.83 112.082C43.7372 112.386 43.9186 111.061 43.9186 111.061C43.9186 111.061 42.6395 107.859 42.5805 106.117Z" fill="#3A4646" stroke="#3A4646" stroke-linecap="round" stroke-linejoin="round"/>
<path d="M45.8275 92.6803L44.4859 92.4265C43.7894 92.2948 43.1178 92.7527 42.9861 93.4493L41.3837 101.922C41.2519 102.618 41.7098 103.29 42.4064 103.422L43.7479 103.675C44.4445 103.807 45.116 103.349 45.2478 102.653L46.8502 94.1801C46.982 93.4835 46.5241 92.812 45.8275 92.6803Z" fill="white" stroke="#3A4646" stroke-linecap="round" stroke-linejoin="round"/>
<path d="M162.878 98.9279H161.821C160.651 98.9279 159.702 99.8762 159.702 101.046V107.093C159.702 108.262 160.651 109.211 161.821 109.211H162.878C164.047 109.211 164.996 108.262 164.996 107.093V101.046C164.996 99.8762 164.047 98.9279 162.878 98.9279Z" fill="white" stroke="#3A4646" stroke-linecap="round" stroke-linejoin="round"/>
<path d="M58.3247 129.622C66.1331 129.622 72.4631 123.292 72.4631 115.484C72.4631 107.676 66.1331 101.346 58.3247 101.346C50.5162 101.346 44.1862 107.676 44.1862 115.484C44.1862 123.292 50.5162 129.622 58.3247 129.622Z" fill="#3A4646"/>
<path d="M57.7214 97.5672L58.3247 115.484L49.33 100.742L57.7214 97.5672ZM68.3808 129.527L58.3292 115.466L60.2479 133.292L68.3808 129.527Z" fill="white"/>
<path d="M58.3247 129.622C66.1331 129.622 72.4631 123.292 72.4631 115.484C72.4631 107.676 66.1331 101.346 58.3247 101.346C50.5162 101.346 44.1862 107.676 44.1862 115.484C44.1862 123.292 50.5162 129.622 58.3247 129.622Z" stroke="#3A4646" stroke-linecap="round" stroke-linejoin="round"/>
<path d="M58.3247 124.783C63.4602 124.783 67.6233 120.62 67.6233 115.484C67.6233 110.349 63.4602 106.185 58.3247 106.185C53.1892 106.185 49.0261 110.349 49.0261 115.484C49.0261 120.62 53.1892 124.783 58.3247 124.783Z" fill="white" stroke="#3A4646" stroke-linecap="round" stroke-linejoin="round"/>
<path d="M58.3247 122.211C62.0398 122.211 65.0514 119.199 65.0514 115.484C65.0514 111.769 62.0398 108.757 58.3247 108.757C54.6096 108.757 51.5979 111.769 51.5979 115.484C51.5979 119.199 54.6096 122.211 58.3247 122.211Z" fill="white" stroke="#3A4646" stroke-linecap="round" stroke-linejoin="round"/>
<path d="M150.59 122.243C154.312 115.379 151.765 106.797 144.901 103.074C138.037 99.3519 129.455 101.899 125.732 108.763C122.01 115.627 124.557 124.209 131.421 127.932C138.286 131.654 146.868 129.107 150.59 122.243Z" fill="#3A4646"/>
<path d="M155.049 109.474L138.157 115.484L149.497 102.439L155.049 109.474ZM127.833 129.323L138.166 115.484L121.764 122.714L127.833 129.323Z" fill="white"/>
<path d="M150.59 122.243C154.312 115.379 151.765 106.797 144.901 103.074C138.037 99.3519 129.455 101.899 125.732 108.763C122.01 115.627 124.557 124.209 131.421 127.932C138.286 131.654 146.868 129.107 150.59 122.243Z" stroke="#3A4646" stroke-linecap="round" stroke-linejoin="round"/>
<path d="M146.589 119.399C148.753 114.742 146.731 109.212 142.074 107.048C137.417 104.884 131.887 106.906 129.723 111.563C127.559 116.221 129.581 121.75 134.238 123.914C138.895 126.078 144.425 124.057 146.589 119.399Z" fill="white" stroke="#3A4646" stroke-linecap="round" stroke-linejoin="round"/>
<path d="M140.024 121.936C143.594 120.909 145.655 117.182 144.628 113.612C143.601 110.042 139.874 107.98 136.304 109.007C132.734 110.034 130.672 113.761 131.699 117.331C132.726 120.902 136.453 122.963 140.024 121.936Z" fill="white" stroke="#3A4646" stroke-linecap="round" stroke-linejoin="round"/>
<path d="M74.4907 85.057C75.5839 87.4747 75.8515 89.7245 75.0441 90.0828C74.2367 90.4412 72.7262 88.7674 71.6331 86.3498C70.5399 83.9321 70.2723 81.6778 71.0797 81.3194C71.8871 80.9611 73.393 82.6349 74.4907 85.057Z" fill="#3A4646" stroke="#3A4646" stroke-linecap="round" stroke-linejoin="round"/>
<path d="M0.500845 129.622H204.499" stroke="#3A4646" stroke-linecap="round" stroke-linejoin="round"/>
</svg>
