<svg width="36" height="32" viewBox="0 0 36 32" fill="none" xmlns="http://www.w3.org/2000/svg">
<path d="M18 25.7778C20.25 25.7778 22.1628 25.0003 23.7384 23.4453C25.3128 21.8892 26.1 20 26.1 17.7778C26.1 15.5556 25.3128 13.6664 23.7384 12.1102C22.1628 10.5553 20.25 9.77778 18 9.77778C15.75 9.77778 13.8372 10.5553 12.2616 12.1102C10.6872 13.6664 9.9 15.5556 9.9 17.7778C9.9 20 10.6872 21.8892 12.2616 23.4453C13.8372 25.0003 15.75 25.7778 18 25.7778ZM16.02 15.8222L17.19 13.3333C17.34 12.9778 17.61 12.8 18 12.8C18.39 12.8 18.66 12.9778 18.81 13.3333L19.98 15.8222L22.5 16.9778C22.86 17.1259 23.04 17.3926 23.04 17.7778C23.04 18.163 22.86 18.4296 22.5 18.5778L19.98 19.7333L18.81 22.2222C18.66 22.5778 18.39 22.7556 18 22.7556C17.61 22.7556 17.34 22.5778 17.19 22.2222L16.02 19.7333L13.5 18.5778C13.14 18.4296 12.96 18.163 12.96 17.7778C12.96 17.3926 13.14 17.1259 13.5 16.9778L16.02 15.8222ZM3.6 32C2.61 32 1.7628 31.6521 1.0584 30.9564C0.3528 30.2596 0 29.4222 0 28.4444V7.11111C0 6.13333 0.3528 5.29659 1.0584 4.60089C1.7628 3.904 2.61 3.55556 3.6 3.55556H9.27L11.52 1.15556C11.85 0.770371 12.2472 0.481185 12.7116 0.288C13.1772 0.0959999 13.665 0 14.175 0H21.825C22.335 0 22.8228 0.0959999 23.2884 0.288C23.7528 0.481185 24.15 0.770371 24.48 1.15556L26.73 3.55556H32.4C33.39 3.55556 34.2378 3.904 34.9434 4.60089C35.6478 5.29659 36 6.13333 36 7.11111V28.4444C36 29.4222 35.6478 30.2596 34.9434 30.9564C34.2378 31.6521 33.39 32 32.4 32H3.6Z" fill="#96A561"/>
</svg>
