<svg width="26" height="21" viewBox="0 0 26 21" fill="none" xmlns="http://www.w3.org/2000/svg">
<path d="M7.8 13.65H10.4V10.5H14.95V13.125L19.5 9.45L14.95 5.775V8.4H9.1C8.73167 8.4 8.42313 8.50045 8.1744 8.70135C7.9248 8.90295 7.8 9.1525 7.8 9.45V13.65ZM13 21C12.675 21 12.3552 20.9475 12.0406 20.8425C11.7269 20.7375 11.44 20.58 11.18 20.37L0.78 11.97C0.52 11.76 0.325 11.5283 0.195 11.2749C0.0650001 11.0208 0 10.7625 0 10.5C0 10.2375 0.0650001 9.9792 0.195 9.7251C0.325 9.4717 0.52 9.24 0.78 9.03L11.18 0.63C11.44 0.42 11.7269 0.2625 12.0406 0.1575C12.3552 0.0525001 12.675 0 13 0C13.325 0 13.6448 0.0525001 13.9594 0.1575C14.2731 0.2625 14.56 0.42 14.82 0.63L25.22 9.03C25.48 9.24 25.675 9.4717 25.805 9.7251C25.935 9.9792 26 10.2375 26 10.5C26 10.7625 25.935 11.0208 25.805 11.2749C25.675 11.5283 25.48 11.76 25.22 11.97L14.82 20.37C14.56 20.58 14.2731 20.7375 13.9594 20.8425C13.6448 20.9475 13.325 21 13 21Z" fill="#96A561"/>
</svg>
