<svg width="44" height="44" viewBox="0 0 44 44" fill="none" xmlns="http://www.w3.org/2000/svg">
<path fill-rule="evenodd" clip-rule="evenodd" d="M38.4798 22.8177C38.3439 25.573 37.5194 28.2503 36.0816 30.6046C34.6438 32.959 32.6387 34.9153 30.2496 36.2946C27.8605 37.6739 25.1637 38.4321 22.4059 38.5C19.6481 38.5679 16.9172 37.9432 14.4631 36.6832C16.2185 36.0873 17.9401 35.3963 19.6203 34.6133C22.1522 33.4339 24.6286 32.1388 27.0416 30.7322C29.4667 29.3452 31.8269 27.8476 34.1146 26.2442C35.6306 25.1818 37.0878 24.038 38.4798 22.8177ZM21.9981 5.5C26.0791 5.5 29.8136 6.98133 32.6938 9.43433L33.275 9.30233L33.5811 9.24L34.2155 9.12267L34.8736 9.02367C37.2111 8.7175 39.8346 8.89167 41.052 11C42.449 13.42 40.9456 16.104 39.2975 18.0803L38.885 18.5607L38.4761 19.0062C35.9205 21.7158 31.6873 24.8747 25.6666 28.3507C19.646 31.8267 14.795 33.913 11.1686 34.7728L10.8771 34.8388L10.2703 34.9653L9.63598 35.0753C7.16648 35.4512 4.28631 35.3192 2.94615 33C1.73065 30.8917 2.89115 28.534 4.32298 26.6622L4.73731 26.1415L4.94815 25.8922L5.36431 25.4192L5.76765 24.9792C5.3308 22.5995 5.42264 20.1528 6.03665 17.8126C6.65067 15.4723 7.77184 13.2958 9.32072 11.4371C10.8696 9.57838 12.8083 8.08306 14.9994 7.05706C17.1906 6.03106 19.5805 5.49949 22 5.5H21.9981ZM7.09865 29.0913L6.81631 29.4837C6.51381 29.9145 6.18015 30.4462 6.13065 30.9283V31.163C6.38731 31.6213 7.29848 31.625 7.96765 31.5755L8.52498 31.5205C7.98112 30.7529 7.50394 29.9403 7.09865 29.0913ZM37.8711 12.837C37.5008 12.562 36.894 12.5363 36.3421 12.5712L35.8196 12.617C35.739 12.6262 35.6638 12.6353 35.5923 12.6408C36.124 13.4108 36.5915 14.2285 36.9875 15.0865L37.2826 14.674C37.6291 14.1735 38.0526 13.4603 37.9371 12.9837L37.8766 12.8333L37.8711 12.837Z" fill="#96A561"/>
</svg>
