<svg width="51" height="67" viewBox="0 0 51 67" fill="none" xmlns="http://www.w3.org/2000/svg">
<path d="M25.5 33.5C27.2531 33.5 28.7544 32.8434 30.0039 31.5302C31.2513 30.2192 31.875 28.6425 31.875 26.8C31.875 24.9575 31.2513 23.3796 30.0039 22.0664C28.7544 20.7555 27.2531 20.1 25.5 20.1C23.7469 20.1 22.2466 20.7555 20.9993 22.0664C19.7498 23.3796 19.125 24.9575 19.125 26.8C19.125 28.6425 19.7498 30.2192 20.9993 31.5302C22.2466 32.8434 23.7469 33.5 25.5 33.5ZM25.5 67C16.9469 59.3508 10.5591 52.2455 6.33675 45.6839C2.11225 39.1246 0 33.0533 0 27.47C0 19.095 2.56381 12.4229 7.69144 7.45375C12.8169 2.48458 18.7531 0 25.5 0C32.2469 0 38.1831 2.48458 43.3086 7.45375C48.4362 12.4229 51 19.095 51 27.47C51 33.0533 48.8888 39.1246 44.6664 45.6839C40.4419 52.2455 34.0531 59.3508 25.5 67Z" fill="black"/>
</svg>
