<svg width="44" height="44" viewBox="0 0 44 44" fill="none" xmlns="http://www.w3.org/2000/svg">
<path d="M5.38525 12.8334V9.16675H8.97553V7.33341C8.97553 6.36095 9.35379 5.42832 10.0271 4.74069C10.7004 4.05306 11.6136 3.66675 12.5658 3.66675H23.3366V16.5001L27.8245 13.7501L32.3123 16.5001V3.66675H34.1075C35.9924 3.66675 37.6978 5.40841 37.6978 7.33341V36.6667C37.6978 38.5917 35.9924 40.3334 34.1075 40.3334H12.5658C10.6809 40.3334 8.97553 38.5917 8.97553 36.6667V34.8334H5.38525V31.1667H8.97553V23.8334H5.38525V20.1667H8.97553V12.8334H5.38525ZM12.5658 20.1667H8.97553V23.8334H12.5658V20.1667ZM12.5658 12.8334V9.16675H8.97553V12.8334H12.5658ZM12.5658 34.8334V31.1667H8.97553V34.8334H12.5658Z" fill="#C1CB9C"/>
</svg>
