<svg width="30" height="30" viewBox="0 0 30 30" fill="none" xmlns="http://www.w3.org/2000/svg">
<path d="M12.5 17.8221L13.0025 17.5L13.2767 18.03L13.8725 18.0025L13.845 18.5988L14.375 18.8725L14.0529 19.375L14.375 19.8775L13.845 20.1512L13.8725 20.7475L13.2767 20.72L13.0025 21.25L12.5 20.9279L11.9975 21.25L11.7237 20.72L11.1275 20.7475L11.155 20.1512L10.625 19.8775L10.9471 19.375L10.625 18.8725L11.155 18.5988L11.1275 18.0025L11.7237 18.03L11.9975 17.5L12.5 17.8221Z" fill="black" stroke="black" stroke-linecap="round" stroke-linejoin="round"/>
<path d="M12.5 13.3334C12.9602 13.3334 13.3333 12.9603 13.3333 12.5001C13.3333 12.0398 12.9602 11.6667 12.5 11.6667C12.0397 11.6667 11.6666 12.0398 11.6666 12.5001C11.6666 12.9603 12.0397 13.3334 12.5 13.3334Z" fill="black" stroke="black" stroke-linecap="round" stroke-linejoin="round"/>
<path d="M14.1667 12.9167C13.9792 13.3334 13.4505 13.7501 12.5 13.7501C11.5496 13.7501 11.0209 13.3334 10.8334 12.9167" stroke="black" stroke-width="1.5" stroke-linecap="round" stroke-linejoin="round"/>
<path d="M20.8333 22.9166H9.16663V7.08325L20.8333 15.4166H13.75L20.8333 22.9166Z" fill="#D22F27"/>
<path d="M12.5 17.8221L13.0025 17.5L13.2767 18.03L13.8725 18.0025L13.845 18.5988L14.375 18.8725L14.0529 19.375L14.375 19.8775L13.845 20.1512L13.8725 20.7475L13.2767 20.72L13.0025 21.25L12.5 20.9279L11.9975 21.25L11.7237 20.72L11.1275 20.7475L11.155 20.1512L10.625 19.8775L10.9471 19.375L10.625 18.8725L11.155 18.5988L11.1275 18.0025L11.7237 18.03L11.9975 17.5L12.5 17.8221Z" fill="white" stroke="white" stroke-linecap="round" stroke-linejoin="round"/>
<path d="M12.5 13.3332C12.9602 13.3332 13.3333 12.9601 13.3333 12.4998C13.3333 12.0396 12.9602 11.6665 12.5 11.6665C12.0397 11.6665 11.6666 12.0396 11.6666 12.4998C11.6666 12.9601 12.0397 13.3332 12.5 13.3332Z" fill="white" stroke="white" stroke-linecap="round" stroke-linejoin="round"/>
<path d="M14.1666 12.9165C13.9791 13.3332 13.4503 13.7498 12.4999 13.7498C11.5495 13.7498 11.0208 13.3332 10.8333 12.9165" stroke="white" stroke-width="1.5" stroke-linecap="round" stroke-linejoin="round"/>
<path d="M20.8333 22.9166H9.16663V7.08325L20.8333 15.4166H13.75L20.8333 22.9166Z" stroke="black" stroke-width="2" stroke-linecap="round" stroke-linejoin="round"/>
<path d="M20.8333 22.9166H9.16663V7.08325L20.8333 15.4166H13.75L20.8333 22.9166Z" stroke="#1E50A0" stroke-width="2" stroke-linecap="round" stroke-linejoin="round"/>
</svg>
