<svg width="266" height="222" viewBox="0 0 266 222" fill="none" xmlns="http://www.w3.org/2000/svg">
<path d="M172.488 49.2926C173.874 44.1209 181.212 44.1209 182.598 49.2926C192.915 87.7938 223.085 117.862 261.605 128.107C266.797 129.488 266.797 136.868 261.605 138.249C223.085 148.494 192.915 178.562 182.598 217.063C181.212 222.235 173.874 222.235 172.488 217.063C162.171 178.562 132 148.494 93.4806 138.249C88.2886 136.868 88.2886 129.488 93.4806 128.107C132 117.862 162.171 87.7938 172.488 49.2926Z" fill="white" stroke="black"/>
<path d="M109.62 5.46626C111 0.315699 118.308 0.315698 119.688 5.46626C129.967 43.8246 160.026 73.7807 198.403 83.9881C203.574 85.3634 203.574 92.7129 198.403 94.0883C160.026 104.296 129.967 134.252 119.688 172.61C118.308 177.761 111 177.761 109.62 172.61C99.3405 134.252 69.2817 104.296 30.905 94.0883C25.7342 92.7129 25.7342 85.3634 30.905 83.9881C69.2817 73.7807 99.3405 43.8246 109.62 5.46626Z" stroke="black"/>
<path d="M196.24 1.60473C196.391 0.133158 198.538 0.133162 198.689 1.60473C199.423 8.77305 205.1 14.448 212.272 15.165C213.742 15.3121 213.742 17.4555 212.272 17.6025C205.1 18.3196 199.423 23.9945 198.689 31.1629C198.538 32.6344 196.391 32.6344 196.24 31.1629C195.505 23.9945 189.828 18.3196 182.657 17.6025C181.186 17.4555 181.186 15.3121 182.657 15.165C189.828 14.448 195.505 8.77305 196.24 1.60473Z" fill="white" stroke="black"/>
<path d="M9.41975 47.2798C9.48778 46.6213 10.4503 46.6213 10.5183 47.2798C10.9772 51.7221 14.499 55.2418 18.9447 55.6828C19.6013 55.748 19.6013 56.7051 18.9447 56.7702C14.499 57.2112 10.9772 60.7309 10.5183 65.1732C10.4503 65.8318 9.48778 65.8318 9.41975 65.1732C8.96088 60.7309 5.43908 57.2112 0.993362 56.7702C0.336817 56.7051 0.336812 55.748 0.993363 55.6828C5.43908 55.2418 8.96088 51.7221 9.41975 47.2798Z" fill="white" stroke="black"/>
</svg>
