<svg width="18" height="18" viewBox="0 0 18 18" fill="none" xmlns="http://www.w3.org/2000/svg">
<g clip-path="url(#clip0_1_3350)">
<path d="M17.2174 9.19947C17.2174 8.4616 17.1588 7.92314 17.032 7.36475H8.78439V10.6952H13.6255C13.528 11.5228 13.0009 12.7693 11.8296 13.6068L11.8132 13.7183L14.4209 15.7822L14.6016 15.8006C16.2608 14.235 17.2174 11.9316 17.2174 9.19947Z" fill="#4285F4"/>
<path d="M8.78439 17.9743C11.1561 17.9743 13.1472 17.1765 14.6016 15.8005L11.8296 13.6067C11.0878 14.1352 10.0923 14.5042 8.78439 14.5042C6.46142 14.5042 4.48983 12.9387 3.78701 10.7749L3.68399 10.7838L0.972442 12.9277L0.936981 13.0284C2.38151 15.96 5.34869 17.9743 8.78439 17.9743Z" fill="#34A853"/>
<path d="M3.78701 10.7748C3.60156 10.2164 3.49424 9.61808 3.49424 8.99988C3.49424 8.38161 3.60156 7.78335 3.77725 7.22496L3.77234 7.10604L1.02681 4.92773L0.936978 4.97139C0.341619 6.18792 0 7.55403 0 8.99988C0 10.4457 0.341619 11.8118 0.936978 13.0283L3.78701 10.7748Z" fill="#FBBC05"/>
<path d="M8.78439 3.49567C10.4339 3.49567 11.5465 4.22358 12.181 4.83188L14.6601 2.35895C13.1376 0.913096 11.1561 0.0256348 8.78439 0.0256348C5.34869 0.0256348 2.38151 2.03985 0.936981 4.97143L3.77725 7.225C4.48983 5.0612 6.46142 3.49567 8.78439 3.49567Z" fill="#EB4335"/>
</g>
<defs>
<clipPath id="clip0_1_3350">
<rect width="17.2174" height="18" fill="white"/>
</clipPath>
</defs>
</svg>
