<svg width="44" height="44" viewBox="0 0 44 44" fill="none" xmlns="http://www.w3.org/2000/svg">
<path fill-rule="evenodd" clip-rule="evenodd" d="M38.4796 22.8177C38.3438 25.573 37.5192 28.2503 36.0814 30.6046C34.6437 32.959 32.6385 34.9153 30.2494 36.2946C27.8603 37.6739 25.1635 38.4321 22.4057 38.5C19.6479 38.5679 16.917 37.9432 14.463 36.6832C16.2183 36.0873 17.9399 35.3963 19.6201 34.6133C22.152 33.4339 24.6284 32.1388 27.0415 30.7322C29.4666 29.3452 31.8267 27.8476 34.1145 26.2442C35.6305 25.1818 37.0877 24.038 38.4796 22.8177ZM21.998 5.5C26.079 5.5 29.8135 6.98133 32.6936 9.43433L33.2748 9.30233L33.581 9.24L34.2153 9.12267L34.8735 9.02367C37.211 8.7175 39.8345 8.89167 41.0518 11C42.4488 13.42 40.9455 16.104 39.2973 18.0803L38.8848 18.5607L38.476 19.0062C35.9203 21.7158 31.6871 24.8747 25.6665 28.3507C19.6458 31.8267 14.7948 33.913 11.1685 34.7728L10.877 34.8388L10.2701 34.9653L9.6358 35.0753C7.1663 35.4512 4.28613 35.3192 2.94596 33C1.73046 30.8917 2.89096 28.534 4.3228 26.6622L4.73713 26.1415L4.94796 25.8922L5.36413 25.4192L5.76746 24.9792C5.33062 22.5995 5.42246 20.1528 6.03647 17.8126C6.65049 15.4723 7.77165 13.2958 9.32053 11.4371C10.8694 9.57838 12.8081 8.08306 14.9992 7.05706C17.1904 6.03106 19.5803 5.49949 21.9998 5.5H21.998ZM7.09846 29.0913L6.81613 29.4837C6.51363 29.9145 6.17996 30.4462 6.13046 30.9283V31.163C6.38713 31.6213 7.2983 31.625 7.96746 31.5755L8.5248 31.5205C7.98094 30.7529 7.50375 29.9403 7.09846 29.0913ZM37.871 12.837C37.5006 12.562 36.8938 12.5363 36.342 12.5712L35.8195 12.617C35.7388 12.6262 35.6636 12.6353 35.5921 12.6408C36.1238 13.4108 36.5913 14.2285 36.9873 15.0865L37.2825 14.674C37.629 14.1735 38.0525 13.4603 37.937 12.9837L37.8765 12.8333L37.871 12.837Z" fill="#C1CB9C"/>
</svg>
