<svg width="24" height="24" viewBox="0 0 24 24" fill="none" xmlns="http://www.w3.org/2000/svg">
<g clip-path="url(#clip0_1_2092)">
<path d="M12 0C8.8174 0 5.76516 1.26428 3.51472 3.51472C1.26428 5.76516 0 8.8174 0 12C0 15.1826 1.26428 18.2348 3.51472 20.4853C5.76516 22.7357 8.8174 24 12 24C15.1826 24 18.2348 22.7357 20.4853 20.4853C22.7357 18.2348 24 15.1826 24 12C24 8.8174 22.7357 5.76516 20.4853 3.51472C18.2348 1.26428 15.1826 0 12 0ZM7.323 2.5965C7.34073 2.76182 7.41489 2.91597 7.533 3.033C7.61489 3.11479 7.67618 3.21486 7.71181 3.32498C7.74745 3.4351 7.7564 3.55211 7.73795 3.66637C7.71949 3.78063 7.67415 3.88887 7.60565 3.98217C7.53716 4.07547 7.44748 4.15116 7.344 4.203L6.9075 4.422C6.80321 4.47387 6.70798 4.54225 6.6255 4.6245L5.9055 5.3445C5.70864 5.54149 5.46082 5.67979 5.1898 5.7439C4.91878 5.80802 4.63526 5.79541 4.371 5.7075L4.341 5.697C4.11794 5.62275 3.8805 5.6022 3.648 5.637C4.6247 4.35612 5.88186 3.31602 7.323 2.5965ZM2.823 17.1075L4.113 16.7835C4.43765 16.7025 4.7259 16.5153 4.93193 16.2517C5.13795 15.9881 5.24991 15.6631 5.25 15.3285V15.0525C5.24996 14.8056 5.31087 14.5625 5.42731 14.3448C5.54375 14.1271 5.71213 13.9415 5.9175 13.8045L5.9775 13.7655C6.16233 13.6424 6.31751 13.4797 6.43183 13.2893C6.54616 13.0989 6.61678 12.8855 6.63859 12.6645C6.6604 12.4435 6.63287 12.2204 6.55797 12.0113C6.48308 11.8022 6.36269 11.6124 6.2055 11.4555L4.6815 9.9315C4.56841 9.82076 4.50188 9.67101 4.4955 9.51286C4.48911 9.35471 4.54336 9.20008 4.64716 9.08059C4.75095 8.96109 4.89646 8.88574 5.05395 8.86992C5.21143 8.85411 5.36902 8.89903 5.4945 8.9955L7.1295 10.2225C7.24086 10.3058 7.37321 10.3566 7.51175 10.369C7.65029 10.3815 7.78956 10.3552 7.914 10.293C8.02834 10.2357 8.15544 10.2086 8.28321 10.2143C8.41098 10.2199 8.53518 10.2582 8.64401 10.3254C8.75283 10.3925 8.84267 10.4864 8.90498 10.5981C8.96729 10.7098 9 10.8356 9 10.9635V11.646C8.9999 11.8772 9.06828 12.1032 9.1965 12.2955L10.389 14.0835C10.4626 14.1943 10.5211 14.3143 10.563 14.4405L11.658 17.7255C11.7578 18.024 11.9489 18.2836 12.2044 18.4675C12.4599 18.6513 12.7667 18.7502 13.0815 18.75H13.1685C13.4834 18.7501 13.7904 18.651 14.0459 18.4669C14.3014 18.2827 14.4925 18.0228 14.592 17.724L15.687 14.4405C15.7289 14.3143 15.7874 14.1943 15.861 14.0835L17.0475 12.303C17.1098 12.2097 17.1941 12.1332 17.293 12.0804C17.3919 12.0275 17.5023 11.9999 17.6145 12C17.8545 12 18.0735 12.126 18.2025 12.327C19.038 13.6395 20.6475 15.75 21.75 15.75C21.77 15.7502 21.79 15.7497 21.81 15.7485C21.0956 17.615 19.8636 19.239 18.2586 20.4298C16.6535 21.6206 14.7421 22.3289 12.7486 22.4714C10.7552 22.6139 8.76242 22.1848 7.0043 21.2345C5.24618 20.2841 3.79566 18.8534 2.823 17.1075Z" fill="#96A561"/>
</g>
<defs>
<clipPath id="clip0_1_2092">
<rect width="24" height="24" fill="white"/>
</clipPath>
</defs>
</svg>
