<svg width="335" height="281" viewBox="0 0 335 281" fill="none" xmlns="http://www.w3.org/2000/svg">
<path d="M215.913 59.097C217.371 53.6548 225.093 53.6548 226.551 59.097L230.944 75.4904C241.751 115.818 273.287 147.296 313.635 158.027L330.207 162.435C335.663 163.886 335.663 171.628 330.207 173.079L313.635 177.487C273.287 188.219 241.751 219.696 230.944 260.024L226.551 276.418C225.093 281.86 217.371 281.86 215.913 276.418L211.52 260.024C200.713 219.696 169.177 188.219 128.829 177.487L112.257 173.079C106.801 171.628 106.801 163.886 112.257 162.435L128.829 158.027C169.177 147.296 200.713 115.818 211.52 75.4904L215.913 59.097Z" fill="white" stroke="black"/>
<path d="M137.548 4.58232C139.006 -0.859836 146.729 -0.859836 148.187 4.58231L152.477 20.5919C163.284 60.9197 194.82 92.3969 235.168 103.129L251.356 107.434C256.811 108.885 256.811 116.627 251.356 118.078L235.168 122.384C194.82 133.116 163.284 164.593 152.477 204.921L148.187 220.93C146.729 226.372 139.006 226.372 137.548 220.93L133.258 204.921C122.451 164.593 90.9153 133.116 50.5674 122.384L34.3793 118.078C28.9239 116.627 28.9239 108.885 34.3792 107.434L50.5674 103.129C90.9153 92.3969 122.451 60.9198 133.258 20.5919L137.548 4.58232Z" stroke="black"/>
<path d="M244.561 2.28826C244.746 0.489833 247.365 0.489841 247.55 2.28825L247.81 4.8304C248.659 13.1108 255.215 19.6514 263.498 20.4796L265.991 20.7289C267.794 20.9092 267.794 23.5375 265.991 23.7178L263.498 23.9671C255.215 24.7953 248.659 31.336 247.81 39.6163L247.55 42.1585C247.365 43.9569 244.746 43.9569 244.561 42.1585L244.301 39.6163C243.452 31.336 236.896 24.7953 228.613 23.9671L226.12 23.7178C224.317 23.5375 224.317 20.9092 226.12 20.7289L228.613 20.4796C236.896 19.6514 243.452 13.1108 244.301 4.8304L244.561 2.28826Z" fill="white" stroke="black"/>
<path d="M11.6148 60.7095C11.7148 59.741 13.1296 59.741 13.2296 60.7095C13.7954 66.1867 18.1377 70.5263 23.6188 71.07C24.5855 71.1659 24.5854 72.5751 23.6188 72.6709C18.1377 73.2147 13.7954 77.5542 13.2296 83.0314C13.1296 83.9999 11.7148 83.9999 11.6148 83.0314C11.049 77.5542 6.70671 73.2147 1.22563 72.6709C0.25898 72.5751 0.258974 71.1659 1.22563 71.07C6.70671 70.5263 11.049 66.1867 11.6148 60.7095Z" fill="white" stroke="black"/>
</svg>
