<svg width="44" height="44" viewBox="0 0 44 44" fill="none" xmlns="http://www.w3.org/2000/svg">
<path d="M22.0002 21.9999C19.9835 21.9999 18.2571 21.2819 16.821 19.8458C15.3849 18.4096 14.6668 16.6833 14.6668 14.6666C14.6668 12.6499 15.3849 10.9235 16.821 9.48742C18.2571 8.05131 19.9835 7.33325 22.0002 7.33325C24.0168 7.33325 25.7432 8.05131 27.1793 9.48742C28.6154 10.9235 29.3335 12.6499 29.3335 14.6666C29.3335 16.6833 28.6154 18.4096 27.1793 19.8458C25.7432 21.2819 24.0168 21.9999 22.0002 21.9999ZM7.3335 36.6666V31.5333C7.3335 30.4944 7.60116 29.5392 8.1365 28.6678C8.67061 27.7975 9.38072 27.1333 10.2668 26.6749C12.1613 25.7277 14.0863 25.017 16.0418 24.5428C17.9974 24.0698 19.9835 23.8333 22.0002 23.8333C24.0168 23.8333 26.0029 24.0698 27.9585 24.5428C29.9141 25.017 31.8391 25.7277 33.7335 26.6749C34.6196 27.1333 35.3297 27.7975 35.8638 28.6678C36.3992 29.5392 36.6668 30.4944 36.6668 31.5333V36.6666H7.3335Z" fill="#C1CB9C"/>
</svg>
